<svg width="124" height="26" viewBox="0 0 124 26" xmlns="http://www.w3.org/2000/svg">
    <path d="M9.775 18.502c1.985 3.287 5.627 5.492 9.68 5.492 5.987 0 9.283-5.217 9.283-5.217l.424 1.39C26.39 23.807 21.438 26 15.897 26c-6.379 0-11.88-3.073-14.412-7.504C.532 16.827 0 14.963 0 13 0 5.82 7.117 0 15.897 0c6.204 0 11.199 2.683 13.82 6.571l-10.409 6.294 5.941-9.21c-1.7-1.08-3.785-2.09-5.94-2.09-6.095 0-11.115 5.135-11.115 11.288 0 2.062.58 4 1.58 5.65zm27.872-.003c-.031.21-.047.422-.047.634 0 2.336 1.876 4.23 4.19 4.23 2.313 0 4.189-1.894 4.189-4.23 0-.213-.016-.426-.047-.637-.303-2.032-2.042-3.593-4.143-3.593-2.1 0-3.839 1.56-4.142 3.596zm15.544-.003 2.082 7.081H47.97l-1.436-4.848c-.962 2.794-4.207 4.848-8.062 4.848-4.612 0-8.351-2.941-8.351-6.57 0-.17.008-.339.024-.51.328-3.388 3.93-6.06 8.327-6.06 2.495 0 4.735.86 6.265 2.225l-1.989-6.715h-8.382s1.395-.845 7.579-3.117c6.184-2.272 8.144 3.117 8.144 3.117l3.102 10.55zm23.35 0v7.081h-7.514V10.02c0-1.145-.92-2.073-2.053-2.073-.847 0-1.606.524-1.914 1.32v16.31h-7.375V7.947h-4.301s5.984-3.66 8.058-3.66c1.967 0 3.422 1.525 3.604 3.468 2.894-1.576 5.764-3.469 7.738-3.469 2.04 0 3.7 1.642 3.757 3.688v10.522zm11.577 0 1.045 3.49a2.729 2.729 0 0 0 2.732 2.693c1.528 0 2.766-1.25 2.766-2.792 0-.11-.006-.217-.018-.323l-.89-3.068-3.121-10.773c-.154-1.397-1.326-2.482-2.75-2.482-1.409 0-2.752 1.33-2.924 2.705l3.16 10.55zm11.959.002C98.654 22.855 94.589 26 89.797 26c-4.793 0-8.857-3.145-10.281-7.504a11.003 11.003 0 0 1-.542-3.423c0-6.035 4.845-10.928 10.823-10.928 5.977 0 10.822 4.893 10.822 10.928 0 1.196-.19 2.347-.542 3.425zm12.442-.002v7.081h-7.375V7.947h-4.125s5.807-3.66 7.882-3.66c1.967 0 3.422 1.525 3.604 3.468 2.894-1.576 5.763-3.469 7.738-3.469 2.04 0 3.7 1.642 3.757 3.688v17.603h-7.515V10.02c0-1.145-.919-2.073-2.053-2.073-.846 0-1.606.524-1.913 1.32v9.23z" fill="#857ECB" fill-rule="nonzero"/>
</svg>
