<svg width="78" height="78" viewBox="0 0 78 78" xmlns="http://www.w3.org/2000/svg">
    <g fill="none" fill-rule="evenodd">
        <rect fill="#B871FF" width="78" height="78" rx="4"/>
        <path d="M39.002 18.828c11.139 0 20.17 9.03 20.17 20.172 0 11.141-9.031 20.172-20.17 20.172-11.143 0-20.174-9.03-20.174-20.172 0-11.141 9.031-20.172 20.174-20.172zm0 4.324c-8.756 0-15.85 7.096-15.85 15.848s7.094 15.848 15.85 15.848c8.752 0 15.85-7.096 15.85-15.848s-7.098-15.848-15.85-15.848zm-.223 3.745a2.464 2.464 0 0 1 2.462 2.461v7.408h7.397a2.463 2.463 0 1 1 0 4.924h-9.859a2.467 2.467 0 0 1-2.469-2.44v-9.892a2.465 2.465 0 0 1 2.469-2.461z" fill="#F9FAFE"/>
    </g>
</svg>
