<svg width="17" height="16" viewBox="0 0 17 16" xmlns="http://www.w3.org/2000/svg">
    <path d="M14.837 0H3.155C1.965 0 1 .965 1 2.155v11.682c0 1.19.965 2.155 2.155 2.155h5.761l.01-5.715H7.442a.35.35 0 0 1-.35-.349l-.008-1.842a.35.35 0 0 1 .35-.352h1.482v-1.78c0-2.065 1.262-3.19 3.104-3.19h1.512a.35.35 0 0 1 .35.35v1.554a.35.35 0 0 1-.35.35h-.927c-1.002 0-1.196.477-1.196 1.176v1.54h2.202a.35.35 0 0 1 .347.392l-.218 1.842a.35.35 0 0 1-.348.31H11.42l-.01 5.714h3.428c1.19 0 2.155-.965 2.155-2.155V2.155C16.992.965 16.027 0 14.837 0z" fill="#C4C9E3" fill-rule="evenodd"/>
</svg>
