<svg width="395" height="122" viewBox="0 0 395 122" fill="none" xmlns="http://www.w3.org/2000/svg">
<path d="M61 117.191L83.4632 48.0557H38.5382L61 117.191ZM7.05455 48.0557L0.227795 69.0649C-0.075688 69.9991 -0.0756146 71.0053 0.228005 71.9394C0.531624 72.8735 1.1232 73.6875 1.91792 74.2647L61 117.191L7.05455 48.0557Z" fill="#857ECB"/>
<path d="M7.05456 48.0558H38.5372L25.0067 6.41636C24.3109 4.27397 21.2799 4.27397 20.5842 6.41636L7.05456 48.056V48.0558ZM114.945 48.0558L121.772 69.065C122.076 69.9992 122.076 71.0054 121.772 71.9395C121.468 72.8736 120.877 73.6876 120.082 74.2648L61.0002 117.191L114.945 48.0558V48.0558Z" fill="#857ECB"/>
<path d="M114.945 48.0558H83.463L96.9933 6.41636C97.6896 4.27397 100.721 4.27397 101.416 6.41636L114.945 48.056V48.0558Z" fill="#857ECB"/>
<path d="M195.648 50C195.038 48.1349 194.235 46.4638 193.238 44.9865C192.259 43.4908 191.087 42.2166 189.72 41.1641C188.372 40.1115 186.839 39.3082 185.122 38.7543C183.405 38.2003 181.521 37.9233 179.472 37.9233C176.111 37.9233 173.055 38.7912 170.303 40.527C167.552 42.2628 165.364 44.8203 163.739 48.1996C162.114 51.5788 161.301 55.7244 161.301 60.6364C161.301 65.5483 162.123 69.6939 163.766 73.0732C165.41 76.4524 167.635 79.0099 170.442 80.7457C173.249 82.4815 176.406 83.3494 179.915 83.3494C183.165 83.3494 186.027 82.657 188.501 81.272C190.994 79.8686 192.933 77.8928 194.318 75.3445C195.722 72.7777 196.423 69.7585 196.423 66.2869L198.528 66.7301H181.466V60.6364H203.071V66.7301C203.071 71.402 202.074 75.4645 200.08 78.9176C198.104 82.3707 195.371 85.0483 191.881 86.9503C188.409 88.8338 184.42 89.7756 179.915 89.7756C174.892 89.7756 170.479 88.5938 166.675 86.2301C162.889 83.8665 159.935 80.5057 157.811 76.1477C155.706 71.7898 154.653 66.6193 154.653 60.6364C154.653 56.1491 155.254 52.1143 156.454 48.532C157.673 44.9311 159.39 41.8658 161.606 39.3359C163.822 36.8061 166.444 34.8672 169.472 33.5192C172.501 32.1712 175.834 31.4972 179.472 31.4972C182.463 31.4972 185.251 31.9496 187.837 32.8544C190.44 33.7408 192.758 35.0057 194.789 36.6491C196.839 38.2741 198.547 40.2223 199.913 42.4936C201.28 44.7464 202.222 47.2486 202.739 50H195.648ZM216.616 89V46.4545H223.153V89H216.616ZM219.94 39.3636C218.665 39.3636 217.567 38.9297 216.643 38.0618C215.739 37.1939 215.286 36.1506 215.286 34.9318C215.286 33.7131 215.739 32.6697 216.643 31.8018C217.567 30.9339 218.665 30.5 219.94 30.5C221.214 30.5 222.303 30.9339 223.208 31.8018C224.131 32.6697 224.593 33.7131 224.593 34.9318C224.593 36.1506 224.131 37.1939 223.208 38.0618C222.303 38.9297 221.214 39.3636 219.94 39.3636ZM253.628 46.4545V51.9943H231.58V46.4545H253.628ZM238.006 36.2614H244.543V76.8125C244.543 78.6591 244.811 80.044 245.346 80.9673C245.9 81.8722 246.602 82.4815 247.452 82.7955C248.319 83.0909 249.233 83.2386 250.194 83.2386C250.914 83.2386 251.505 83.2017 251.966 83.1278C252.428 83.0355 252.797 82.9616 253.074 82.9062L254.404 88.7784C253.961 88.9446 253.342 89.1108 252.548 89.277C251.754 89.4616 250.748 89.554 249.529 89.554C247.682 89.554 245.873 89.157 244.1 88.3629C242.346 87.5689 240.887 86.3594 239.724 84.7344C238.579 83.1094 238.006 81.0597 238.006 78.5852V36.2614ZM265.262 89V32.2727H272.131V82.9062H298.501V89H265.262ZM320.77 89.9972C318.074 89.9972 315.628 89.4893 313.43 88.4737C311.233 87.4396 309.488 85.9531 308.195 84.0142C306.903 82.0568 306.256 79.6932 306.256 76.9233C306.256 74.4858 306.736 72.5099 307.697 70.9957C308.657 69.4631 309.94 68.2628 311.547 67.3949C313.153 66.527 314.926 65.8807 316.865 65.456C318.822 65.0128 320.789 64.6619 322.765 64.4034C325.35 64.071 327.446 63.8217 329.052 63.6555C330.677 63.4709 331.859 63.1662 332.598 62.7415C333.355 62.3168 333.733 61.5781 333.733 60.5256V60.304C333.733 57.571 332.986 55.4474 331.49 53.9332C330.013 52.419 327.769 51.6619 324.759 51.6619C321.638 51.6619 319.192 52.3452 317.419 53.7116C315.646 55.0781 314.4 56.5369 313.68 58.0881L307.475 55.8722C308.583 53.2869 310.06 51.2741 311.907 49.8338C313.772 48.375 315.803 47.3594 318.001 46.7869C320.216 46.196 322.395 45.9006 324.537 45.9006C325.904 45.9006 327.474 46.0668 329.246 46.3991C331.037 46.7131 332.764 47.3686 334.426 48.3658C336.106 49.3629 337.501 50.8679 338.608 52.8807C339.716 54.8935 340.27 57.5895 340.27 60.9688V89H333.733V83.2386H333.401C332.958 84.1619 332.219 85.1499 331.185 86.2024C330.151 87.255 328.775 88.1506 327.058 88.8892C325.341 89.6278 323.245 89.9972 320.77 89.9972ZM321.768 84.125C324.353 84.125 326.532 83.6172 328.305 82.6016C330.096 81.5859 331.444 80.2749 332.349 78.6683C333.272 77.0618 333.733 75.3722 333.733 73.5994V67.6165C333.456 67.9489 332.847 68.2536 331.905 68.5305C330.982 68.7891 329.911 69.0199 328.692 69.223C327.492 69.4077 326.319 69.5739 325.175 69.7216C324.048 69.8509 323.134 69.9616 322.432 70.054C320.733 70.2756 319.145 70.6357 317.668 71.1342C316.209 71.6143 315.028 72.3437 314.123 73.3224C313.236 74.2827 312.793 75.5937 312.793 77.2557C312.793 79.527 313.633 81.2443 315.314 82.4077C317.013 83.5526 319.164 84.125 321.768 84.125ZM353.088 89V32.2727H359.625V53.2131H360.179C360.659 52.4744 361.324 51.5327 362.173 50.3878C363.041 49.2244 364.278 48.1903 365.885 47.2855C367.51 46.3622 369.707 45.9006 372.477 45.9006C376.06 45.9006 379.217 46.7962 381.95 48.5874C384.683 50.3786 386.816 52.9176 388.349 56.2045C389.881 59.4915 390.648 63.3693 390.648 67.8381C390.648 72.3438 389.881 76.2493 388.349 79.5547C386.816 82.8416 384.692 85.3899 381.978 87.1996C379.263 88.9908 376.134 89.8864 372.588 89.8864C369.855 89.8864 367.667 89.4339 366.023 88.5291C364.38 87.6058 363.115 86.5625 362.229 85.3991C361.342 84.2173 360.659 83.2386 360.179 82.4631H359.403V89H353.088ZM359.514 67.7273C359.514 70.9403 359.985 73.7749 360.927 76.2308C361.869 78.6683 363.244 80.5795 365.054 81.9645C366.864 83.331 369.08 84.0142 371.702 84.0142C374.435 84.0142 376.715 83.294 378.543 81.8537C380.39 80.3949 381.775 78.4375 382.698 75.9815C383.64 73.5071 384.111 70.7557 384.111 67.7273C384.111 64.7358 383.649 62.0398 382.726 59.6392C381.821 57.2202 380.445 55.3089 378.599 53.9055C376.771 52.4837 374.472 51.7727 371.702 51.7727C369.043 51.7727 366.808 52.4467 364.999 53.7947C363.189 55.1243 361.822 56.9893 360.899 59.3899C359.976 61.772 359.514 64.5511 359.514 67.7273Z" fill="#857ECB"/>
</svg>
