<svg width="78" height="78" viewBox="0 0 78 78" xmlns="http://www.w3.org/2000/svg">
    <g fill="none" fill-rule="evenodd">
        <rect fill="#667DFF" width="78" height="78" rx="4"/>
        <path d="M48.07 18.828c1.19 0 2.162.905 2.25 2.074l.005.167a2.253 2.253 0 0 1-2.254 2.242H29.927a2.242 2.242 0 0 1-2.255-2.242 2.253 2.253 0 0 1 2.255-2.241h18.144zm4.53 7.216c1.19 0 2.163.381 2.248 1.504l.006.162c0 1.193-1.017 1.709-2.255 1.709H25.396c-1.243 0-2.255-.508-2.255-1.71 0-1.19 1.02-1.665 2.255-1.665h27.203zm-17.051 13.27 9.633 5.308c1.093.6 1.085 1.584-.005 2.187l-9.661 5.36c-1.093.606-1.979.086-1.976-1.155l.025-10.538c.002-1.243.899-1.763 1.984-1.162zm-13.73-2.572 1.87 18.836c.011.103.16.237.25.237h30.116c.085 0 .242-.146.251-.237l1.875-18.827a1 1 0 0 0-.994-1.1l-32.373-.008a1 1 0 0 0-.995 1.099zm33.035-4.467c2.593 0 4.553 2.139 4.296 4.694l-1.815 17.955c-.238 2.374-2.331 4.248-4.736 4.248H25.396c-2.413 0-4.49-1.868-4.733-4.248L18.85 36.97c-.26-2.55 1.694-4.694 4.293-4.694h31.71z" fill="#F9FAFE"/>
    </g>
</svg>
