<svg width="16" height="16" viewBox="0 0 16 16" xmlns="http://www.w3.org/2000/svg">
    <g fill="#C4C9E3" fill-rule="evenodd">
        <path d="M11.214 0H4.758A4.764 4.764 0 0 0 0 4.758v6.456a4.764 4.764 0 0 0 4.758 4.758h6.456a4.764 4.764 0 0 0 4.758-4.758V4.758A4.764 4.764 0 0 0 11.214 0zm3.151 11.214c0 1.74-1.41 3.151-3.151 3.151H4.758a3.151 3.151 0 0 1-3.151-3.151V4.758c0-1.74 1.41-3.151 3.151-3.151h6.456c1.74 0 3.151 1.41 3.151 3.151v6.456z" fill-rule="nonzero"/>
        <path d="M7.986 3.855a4.136 4.136 0 0 0-4.13 4.131 4.136 4.136 0 0 0 4.13 4.13 4.136 4.136 0 0 0 4.13-4.13 4.136 4.136 0 0 0-4.13-4.13zm0 6.655a2.524 2.524 0 1 1 0-5.048 2.524 2.524 0 0 1 0 5.048z" fill-rule="nonzero"/>
        <circle cx="12.125" cy="3.886" r="1"/>
    </g>
</svg>
