<svg width="35" height="40" viewBox="0 0 35 40" xmlns="http://www.w3.org/2000/svg">
    <g fill-rule="nonzero" fill="none">
        <path d="M10.339 24.816c-2.685-13.278-.141-21.99-.141-21.99s-.68 5.303 4.67 13.852c-.068 10.598 2.018 16.126 2.018 16.126l.429-.315-.43.373s-3.172-2.59-6.546-8.046zM22.986 22.936c1.284 1.293 2.481 2.188 3.347 2.614a1.928 1.928 0 0 1-.016-.008s.972.349 1.144.116c1.184-1.254 1.474-3.591.684-7.984-4.516-2.579-5.086-6.599-5.086-6.599s-.813 5.581-.073 11.861z" fill="#FCFCFE" opacity=".5"/>
        <path d="M10.198 2.825S6.482 15.55 12.77 33.675c.172.524 0 1.105-.457 1.453l-6.631 4.648c-.629.465-1.543.174-1.83-.58-1.771-4.823-6.63-20.8-1.714-38.288.229-.697.972-1.104 1.658-.813l6.402 2.73zM22.888 28.389l-6.002 4.415s-3.201-8.482-1.544-24.575c.115-.93 1.086-1.395 1.887-.93l5.83 3.776s-1.143 7.844.515 15.397c.171.755-.115 1.51-.686 1.917zM33.977 18.57l-5.545-3.66c-.343-.232-.857.116-.743.523 1.315 5.868 1.143 8.773-.228 10.225-.172.233-1.144-.116-1.144-.116.915.465 1.144.232 1.144.232.914-.697 4.344-3.195 6.516-4.706.857-.639.857-1.917 0-2.498z" fill="#FFF"/>
    </g>
</svg>
