<svg width="135" height="30" viewBox="0 0 135 30" xmlns="http://www.w3.org/2000/svg">
    <path d="M25.012 0a3.42 3.42 0 0 1 3.42 3.42v23.16a3.42 3.42 0 0 1-3.42 3.42H3.422A3.42 3.42 0 0 1 0 26.58V3.42A3.421 3.421 0 0 1 3.421 0h21.591zM14.23 2.295h-.028L12.2 11.068 4.09 7.164l-.018.023 5.612 7.035-8.11 3.904.008.027h8.999l-2.003 8.774.026.012 5.612-7.035 5.61 7.035.026-.013-2.002-8.773h9l.006-.027-8.108-3.904 5.61-7.035-.017-.023-8.109 3.904-2.003-8.773zm102.266 6.106c1.157 0 1.956.863 1.956 2.11v1.578h-3.048v-1.045h-6.523v2.603h7.461c1.102 0 2.11.728 2.11 2.131v3.772c0 1.285-.712 2.067-2.045 2.067h-8.572c-1.366 0-2.024-.79-2.024-1.939v-1.726h3.07v1.022h6.523V16.27h-7.482c-1.195 0-2.055-.803-2.055-1.918v-3.923c0-1.188.936-2.027 2.076-2.027h8.553zm8.036-.001v5.286l5.969-5.286h4.243l-7.12 6.14L135 21.616h-4.393l-6.075-6.012v6.012H121.4V8.4h3.133zm-79.938-.007 4.457 9.876 4.39-9.876h3.37V21.61h-2.9v-7.688l-3.347 7.688h-3.092l-3.39-7.646v7.646h-3.005V8.393h3.517zm23.573 0L74.07 21.61h-3.366l-1.162-2.633H62.64l-1.126 2.633h-3.41l5.862-13.216h4.2zm19.885 0v2.643h-9.573v2.625h8.208v2.579h-8.208v2.725h9.596v2.644H75.43V8.393h12.62zm13.038 0c1.41 0 2.23.817 2.23 2.217v4.44c0 1.021-.905 1.944-2.658 1.944-.1.005-.2 0-.305 0l3.074 4.615h-3.393l-2.914-4.519H93.62v4.519H90.53V8.393h10.56zM66.056 10.89l-2.371 5.602h4.797l-2.426-5.602zm34.196.146H93.62v3.425h6.63v-3.425z" fill="#857ECB" fill-rule="nonzero"/>
</svg>
