<svg width="139" height="31" viewBox="0 0 139 31" xmlns="http://www.w3.org/2000/svg">
    <path d="M14.11 16.269V31H0V16.269h14.11zm15.582 0V31h-14.11V16.269h14.11zm42.95-5.143c.552 0 1.128.072 1.68.193.599.12 1.036.312 1.427.48l.023.024v3.052l-.115-.096c-.898-.673-1.887-1.01-2.854-1.01-1.15 0-2.095.41-2.808 1.202-.714.793-1.059 1.875-1.059 3.245 0 1.321.345 2.379 1.036 3.148.667.793 1.611 1.153 2.808 1.153.414 0 .898-.096 1.427-.288a5.072 5.072 0 0 0 1.45-.793l.115-.096v2.883l-.023.024c-.967.577-2.186.89-3.614.89-1.242 0-2.347-.289-3.291-.842-.99-.552-1.726-1.37-2.256-2.379-.53-1.033-.805-2.163-.805-3.436 0-1.466.276-2.74.828-3.845.53-1.082 1.358-1.947 2.394-2.571 1.036-.625 2.279-.938 3.637-.938zm19.702.024c1.98 0 3.568.601 4.65 1.827 1.128 1.225 1.68 2.907 1.68 5.022 0 2.139-.575 3.87-1.772 5.167-1.174 1.298-2.808 1.946-4.857 1.946-1.956 0-3.521-.624-4.672-1.826-1.151-1.226-1.75-2.908-1.75-4.974 0-2.211.576-3.965 1.773-5.24 1.174-1.273 2.854-1.922 4.948-1.922zm24.33 0c1.979 0 3.567.601 4.649 1.827 1.128 1.225 1.68 2.907 1.68 5.022 0 2.139-.575 3.87-1.772 5.167-1.174 1.298-2.808 1.946-4.857 1.946-1.956 0-3.521-.624-4.672-1.826-1.151-1.226-1.75-2.908-1.75-4.974 0-2.211.599-3.965 1.773-5.24 1.174-1.273 2.854-1.922 4.948-1.922zm-11.601-.024c.414 0 .92.048 1.473.145a8.04 8.04 0 0 1 1.358.408l.069.024v2.932l-.115-.096c-.368-.289-.829-.505-1.335-.65a5.726 5.726 0 0 0-1.542-.24c-.576 0-.967.12-1.312.361-.345.24-.484.6-.484.961 0 .433.116.77.346 1.01.276.264.874.576 1.818.985a9.26 9.26 0 0 1 2.693 1.658c.506.6.737 1.394.737 2.283 0 1.274-.484 2.259-1.404 3.028-.898.793-2.164 1.153-3.706 1.153-.507 0-1.082-.096-1.726-.216-.645-.168-1.174-.312-1.612-.529l-.069-.024v-3.052l.115.097c.484.36 1.06.672 1.68.889.622.216 1.151.312 1.658.312 1.312 0 1.956-.432 1.956-1.322 0-.312-.069-.552-.184-.745-.161-.168-.368-.384-.69-.576-.323-.193-.852-.433-1.542-.745-.83-.36-1.428-.745-1.842-1.082a3.629 3.629 0 0 1-.92-1.25c-.208-.456-.3-1.009-.3-1.633 0-1.178.438-2.187 1.358-2.932.92-.793 2.095-1.154 3.522-1.154zm24.996-6.296c.714 0 1.266.096 1.68.24l.07.025V7.81l-.115-.072c-.484-.216-.921-.312-1.335-.312-.599 0-1.082.192-1.404.576-.323.385-.507.986-.507 1.755v1.682h4.512V8.435l.069-.024 2.854-.89.092-.023v3.94H139v2.572h-3.061v6.296c0 .817.138 1.37.414 1.706.3.36.714.505 1.312.505.161 0 .368-.024.598-.096.277-.072.438-.168.622-.288l.115-.097v2.572l-.023.024c-.184.096-.506.216-.944.312-.414.072-.851.144-1.266.144-2.532 0-3.797-1.417-3.797-4.23V14.01h-4.512v10.742h-3.015V13.986h-2.095v-2.547h2.095v-1.85c0-.938.207-1.755.598-2.476a4.085 4.085 0 0 1 1.635-1.706 5.205 5.205 0 0 1 2.393-.577zM57.82 6.2v18.552h-3.061V12.977c.023-.745.069-1.97.138-3.34h-.07a30.84 30.84 0 0 0-.043.201l-.086.412c-.072.34-.144.657-.216.852l-5.294 13.674h-2.025l-5.34-13.554a11.616 11.616 0 0 1-.414-1.586h-.07c.024.289.07.673.093 1.178.017.757.021 1.406.022 1.987v12.023h-2.876V6.248h4.35l4.442 11.655c.414 1.01.668 1.85.806 2.403h.069l.828-2.451L53.63 6.2h4.189zm5.892 5.239v13.313H60.72V11.439h2.992zm20.485-.217c.507 0 .921.073 1.128.217l.07.024v3.124l-.116-.096c-.16-.12-.391-.217-.713-.313-.346-.048-.622-.12-.898-.12-.783 0-1.427.36-1.933 1.082-.507.696-.737 1.658-.737 2.811v6.8h-2.992V11.44h2.992v2.33h.023c.3-.744.645-1.369 1.15-1.802a3.075 3.075 0 0 1 2.026-.745zm8.01 2.5c-1.081 0-1.933.384-2.555 1.153-.598.77-.92 1.85-.92 3.268 0 1.37.299 2.452.92 3.197.622.793 1.497 1.153 2.578 1.153 1.082 0 1.957-.36 2.51-1.105.575-.745.828-1.875.874-3.317 0-1.418-.322-2.499-.92-3.244-.6-.745-1.428-1.105-2.487-1.105zm24.306 0c-1.081 0-1.933.384-2.555 1.153-.598.77-.92 1.85-.92 3.268 0 1.37.299 2.452.92 3.197.622.793 1.474 1.153 2.578 1.153 1.082 0 1.957-.36 2.51-1.105.575-.745.874-1.875.874-3.317 0-1.418-.322-2.499-.92-3.244-.6-.745-1.45-1.105-2.487-1.105zM14.11 0v14.731H0V0h14.11zm15.583 0v14.731h-14.11V0h14.11zm32.546 5.816c.53 0 .967.192 1.266.528.345.36.53.793.53 1.298s-.185.937-.53 1.274c-.322.312-.76.504-1.266.504s-.92-.168-1.266-.504a1.726 1.726 0 0 1-.53-1.274c0-.529.185-.961.53-1.298.345-.336.76-.528 1.266-.528z" fill="#857ECB" fill-rule="nonzero"/>
</svg>
