<svg width="150" height="37" viewBox="0 0 150 37" xmlns="http://www.w3.org/2000/svg">
    <path d="M130.402 0C142.122-.032 150 8.413 150 18.53c0 10.124-7.859 18.465-19.617 18.47H19.62C7.86 36.995 0 28.654 0 18.53 0 8.414 7.877-.031 19.604 0h110.798zm-.06 4.548H19.655C10.341 4.564 4.63 10.801 4.63 18.507c0 7.709 5.682 13.988 15.024 13.956h110.689c9.35.032 15.027-6.247 15.027-13.956 0-7.706-5.714-13.943-15.027-13.959zm-52.851 10.32c4.254 0 7.717 2.975 7.717 6.565l-.15.002h-.178l-.24.002h-.537l-.672.001h-.249l-2.593.002h-.616l-3.889-.001h-.73v.119l-.001.315v.284l-.001.157-.001.331-.001.502-.001.681c0 2.118 1.42 2.59 2.19 2.59.745 0 2.064-.439 2.158-2.37l.005-.22v-.447l-.001-.07-.001-.132v-.055l5.212-.005c-.908 2.737-3.892 4.753-7.421 4.753-4.255 0-7.702-2.905-7.702-6.5 0-3.596 3.447-6.504 7.702-6.504zm50.35-.061c4.225 0 7.643 2.908 7.643 6.5 0 3.59-3.418 6.504-7.642 6.504-4.223 0-7.646-2.913-7.646-6.503 0-3.593 3.423-6.501 7.646-6.501zm-9.35-5.05v17.419h-5.17v-.072l-.001-.078-.001-.196v-.102l-.001-.219c-2 1.254-4.26 1.254-6.023.437-.472-.224-3.575-1.715-3.575-5.748 0-3.057 2.877-6.396 6.649-6.063 1.241.11 2.123.563 2.962 1.038V9.758h5.16zM41.4 15.595V27.18h-5.232V15.594H41.4zM20.302 9.758 27.8 21.905l-.003-12.147h5.376v17.42h-5.37l-7.537-12.147V27.18h-5.39V9.758h5.425zm47.346 1.792v2.345h2.831v1.723h-2.831l.005 11.56H62.41l.003-11.56H59.57V13.9l2.843-.005-.003-2.345h5.238zm-8.107 9.32v.334l-.001.115-.001.521V27.176h-5.195v-7.608c0-1.01-.964-2.13-2.392-2.13-1.425 0-2.483 1.12-2.483 2.13v1.344l.001.218v1.225l.001.263v1.074l.001.267.001 1.275v1.231l.001.157v.554h-5.192l-.005-11.582 5.197-.005v.129l-.001.194v.723l.001.173a6.3 6.3 0 0 1 4.172-1.748c1.958-.056 5.922 1.225 5.895 5.81zm42.514 0V21l-.001.177-.001.475v4.417l.002 1.055v.052h-5.2v-7.608c0-1.01-.965-2.13-2.392-2.13-1.426 0-2.48 1.12-2.48 2.13v2.275l.002 1.31v1.333l.001.256v1.163l.001.2v1.07h-5.191V15.595l5.192-.005v.129l-.001.09-.001.22v.497c0 .115 0 .216.002.283a6.283 6.283 0 0 1 4.169-1.748c1.955-.056 5.924 1.225 5.898 5.81zm25.744-4.63c-.999 0-2.054.697-2.134 2.387l-.005.208v1.05l-.001.17-.001.63v.135l-.001.477v.06l-.001.717-.001.821v.851c0 1.845 1.094 2.606 2.144 2.606 1.012 0 2.055-.703 2.134-2.398l.005-.208v-.723l.002-.342v-.509l.002-.308v-.137l.001-.316v-.114a55.37 55.37 0 0 1-.004-.688l-.001-.453v-1.321c0-1.84-1.095-2.596-2.139-2.596zm-16.482.77c-.834 0-2.051.454-2.051 2.246v4.124c0 1.795 1.217 2.257 2.051 2.257.813 0 2.049-.462 2.049-2.257v-4.124c0-1.792-1.236-2.246-2.049-2.246zM77.54 16.3c-.682.006-1.433.345-1.841 1.06-.305.53-.349 1.144-.346 2.023l.002.247h4.364c.008-1.014-.01-1.691-.344-2.27-.405-.715-1.156-1.054-1.835-1.06zm59.032-7.817c1.873 0 3.471 1.453 3.471 3.427 0 1.99-1.598 3.45-3.47 3.45-1.89 0-3.485-1.46-3.485-3.45 0-1.974 1.595-3.427 3.484-3.427zm0 .573c-1.569 0-2.797 1.224-2.797 2.854 0 1.657 1.228 2.876 2.797 2.876 1.556 0 2.781-1.22 2.781-2.876 0-1.63-1.225-2.854-2.78-2.854zm.181.88c.938 0 1.402.344 1.402 1.129 0 .71-.445 1.016-1.026 1.09l1.124 1.745h-.671l-1.047-1.72h-.685v1.72h-.6V9.936h1.503zM41.4 9.752v3.564h-5.245V9.752H41.4zm95.264.694h-.815v1.224h.714c.509 0 .965-.032.965-.645 0-.491-.445-.58-.864-.58z" fill="#857ECB" fill-rule="nonzero"/>
</svg>
