<svg width="194" height="315" viewBox="0 0 194 315" fill="none" xmlns="http://www.w3.org/2000/svg">
<path fill-rule="evenodd" clip-rule="evenodd" d="M30.041 314.746C28.973 314.017 27.892 313.296 28.351 311.715C29.249 310.999 30.133 310.265 31.047 309.573C40.73 302.243 48.209 293.177 52.973 281.932C53.787 280.012 54.121 278.924 51.286 279.366C49.734 279.608 48.156 279.01 46.642 278.366C40.41 275.713 35.334 271.459 30.616 266.768C19.813 256.026 10.7719 243.992 4.35994 230.088C2.03994 225.195 0.206976 220.149 0.584976 214.632C0.887976 210.172 2.97697 208.702 7.42897 209.232C10.642 209.614 13.035 211.6 15.669 213.138C16.733 213.798 17.8989 214.335 18.8469 215.132C36.2559 229.762 50.0869 246.889 56.4039 269.236C56.5489 269.752 56.486 270.498 57.314 270.406C57.975 270.332 58.134 269.759 58.275 269.166C59.223 265.17 60.33 261.209 61.148 257.189C65.178 237.368 64.958 217.065 67.929 197.121C68.089 196.051 68.113 194.986 66.479 195.124C62.589 195.453 59.4549 193.32 56.1049 191.896C46.5399 185.174 38.5819 176.808 31.6539 167.471C24.6689 158.057 18.243 148.281 15.374 136.684C14.443 132.913 13.202 128.655 16.864 125.789C20.301 123.099 23.9379 125.326 27.1489 127.004C33.4039 130.273 38.601 134.962 43.392 140.072C53.975 151.359 63.0019 163.707 68.7579 178.217C69.3319 179.665 69.748 181.175 70.455 183.319C72.396 176.131 75.515 170.166 78.276 164.056C84.187 150.979 93.1109 139.954 102.329 129.145C103.073 128.273 103.873 127.448 104.656 126.609C105.852 125.328 105.956 124.467 104.312 123.183C99.494 119.42 97.919 113.641 96.45 108.182C91.744 90.6924 90.7499 72.9384 94.1129 55.0394C94.8359 51.1894 96.0229 47.4954 97.7999 43.9934C100.81 38.0634 106.007 37.6104 109.755 43.2074C113.173 48.3104 115.026 54.1264 116.293 60.1184C119.956 77.8114 120.689 95.5314 116.248 114.072C118.622 111.619 120.374 109.832 122.101 108.021C130.863 98.8174 139.705 89.6844 147.085 79.2734C147.701 78.4034 148.346 77.7544 147.88 76.5414C145.593 70.5914 146.705 64.6214 147.716 58.5984C148.586 53.4114 150.599 48.5554 151.664 43.4404C156.454 32.1434 161.308 20.8784 169.006 11.1484C171.719 7.72037 174.67 4.51039 178.253 1.95639C183.733 -1.94761 188.505 0.144391 189.099 6.86639C189.762 14.3844 188.484 21.6334 186.129 28.8344C184.244 34.6044 182.556 40.4114 179.932 45.9114C178.503 48.9034 176.149 51.4024 175.332 54.7064C171.314 63.2004 165.984 70.7064 158.67 76.6914C157.706 77.4804 156.623 78.4904 155.494 78.6414C151.368 79.1974 149.437 82.2264 147.196 85.1414C140.133 94.3314 132.123 102.691 124.159 111.089C123.409 111.879 122.374 112.519 122.125 114.36C126.99 112.663 131.595 111.091 136.358 110.142C151.752 107.073 167.184 105.718 182.738 109.007C185.255 109.539 187.551 110.604 189.723 111.831C193.778 114.119 194.139 117.693 191.003 121.264C188.579 124.024 185.426 125.625 182.137 126.992C163.179 134.868 143.471 137.087 123.173 134.802C122.38 134.713 121.579 134.702 120.781 134.652C116.666 133.065 112.056 132.562 108.851 128.99C107.928 127.961 107.151 129.042 106.593 129.655C99.268 137.703 92.717 146.37 86.728 155.433C81.781 162.92 78.822 171.433 75.153 179.572C74.645 180.701 74.0569 181.819 74.8679 183.304C75.5609 182.851 76.2069 182.44 76.8389 182.009C83.2249 177.672 90.1399 174.331 97.3679 171.746C105.228 168.933 113.342 166.921 121.523 165.231C129.05 164.644 136.576 163.41 144.111 165.1C145.108 165.324 146.113 165.597 147.049 165.998C152.021 168.128 152.864 171.836 149.486 176.09C145.436 181.193 139.888 184.319 134.251 187.053C118.623 194.636 102.149 199.198 84.673 199.541C80.9 199.615 77.0909 199.586 73.5029 198.154C71.7429 197.451 71.3669 198.19 71.1259 199.793C69.8489 208.306 69.3999 216.893 68.6229 225.453C67.4249 238.67 66.4529 251.92 63.0809 264.761C64.2549 265.741 64.887 264.763 65.611 264.346C83.035 254.293 101.827 249.094 121.897 248.568C125.669 248.47 129.467 248.816 133.007 250.351C137.804 252.431 138.697 256.12 135.479 260.232C131.393 265.454 125.739 268.633 119.989 271.415C104.352 278.983 87.8729 283.535 70.3989 283.851C66.5179 283.921 62.567 283.96 58.927 282.273C56.811 281.293 56.3129 282.721 55.7399 284.142C50.6359 296.792 41.57 306.185 30.966 314.313C30.703 314.516 30.352 314.604 30.041 314.746Z" fill="#5768CB"/>
</svg>
