<svg width="194" height="315" viewBox="0 0 194 315" fill="none" xmlns="http://www.w3.org/2000/svg">
<path fill-rule="evenodd" clip-rule="evenodd" d="M163.589 314.746C164.657 314.017 165.738 313.296 165.279 311.715C164.381 310.999 163.497 310.265 162.583 309.573C152.9 302.243 145.421 293.177 140.657 281.932C139.843 280.012 139.509 278.924 142.344 279.366C143.896 279.608 145.474 279.01 146.988 278.366C153.22 275.713 158.296 271.459 163.014 266.768C173.817 256.026 182.858 243.992 189.27 230.088C191.59 225.195 193.423 220.149 193.045 214.632C192.742 210.172 190.653 208.702 186.201 209.232C182.988 209.614 180.595 211.6 177.961 213.138C176.897 213.798 175.731 214.335 174.783 215.132C157.374 229.762 143.543 246.889 137.226 269.236C137.081 269.752 137.144 270.498 136.316 270.406C135.655 270.332 135.496 269.759 135.355 269.166C134.407 265.17 133.3 261.209 132.482 257.189C128.452 237.368 128.672 217.065 125.701 197.121C125.541 196.051 125.517 194.986 127.151 195.124C131.041 195.453 134.175 193.32 137.525 191.896C147.09 185.174 155.048 176.808 161.976 167.471C168.961 158.057 175.387 148.281 178.256 136.684C179.187 132.913 180.428 128.655 176.766 125.789C173.329 123.099 169.692 125.326 166.481 127.004C160.226 130.273 155.029 134.962 150.238 140.072C139.655 151.359 130.628 163.707 124.872 178.217C124.298 179.665 123.882 181.175 123.175 183.319C121.234 176.131 118.115 170.166 115.354 164.056C109.443 150.979 100.519 139.954 91.3009 129.145C90.5569 128.273 89.7569 127.448 88.9739 126.609C87.7779 125.328 87.6739 124.467 89.3179 123.183C94.1359 119.42 95.7109 113.641 97.1799 108.182C101.886 90.6924 102.88 72.9384 99.517 55.0394C98.794 51.1894 97.6069 47.4954 95.8299 43.9934C92.8199 38.0634 87.6229 37.6104 83.8749 43.2074C80.4569 48.3104 78.6039 54.1264 77.3369 60.1184C73.6739 77.8114 72.9409 95.5314 77.3819 114.072C75.0079 111.619 73.2559 109.832 71.5289 108.021C62.7669 98.8174 53.9249 89.6844 46.5449 79.2734C45.9289 78.4034 45.2839 77.7544 45.7499 76.5414C48.0369 70.5914 46.9249 64.6214 45.9139 58.5984C45.0439 53.4114 43.0309 48.5554 41.9659 43.4404C37.1759 32.1434 32.3219 20.8784 24.6239 11.1484C21.9109 7.72037 18.9599 4.51039 15.3769 1.95639C9.89694 -1.94761 5.12493 0.144391 4.53093 6.86639C3.86793 14.3844 5.1459 21.6334 7.5009 28.8344C9.3859 34.6044 11.0739 40.4114 13.6979 45.9114C15.1269 48.9034 17.4809 51.4024 18.2979 54.7064C22.3159 63.2004 27.6459 70.7064 34.9599 76.6914C35.9239 77.4804 37.0069 78.4904 38.1359 78.6414C42.2619 79.1974 44.1929 82.2264 46.4339 85.1414C53.4969 94.3314 61.5069 102.691 69.4709 111.089C70.2209 111.879 71.2559 112.519 71.5049 114.36C66.6399 112.663 62.0349 111.091 57.2719 110.142C41.8779 107.073 26.446 105.718 10.892 109.007C8.37495 109.539 6.07891 110.604 3.90691 111.831C-0.148093 114.119 -0.509062 117.693 2.62694 121.264C5.05094 124.024 8.20391 125.625 11.4929 126.992C30.4509 134.868 50.1589 137.087 70.4569 134.802C71.2499 134.713 72.0509 134.702 72.8489 134.652C76.9639 133.065 81.5739 132.562 84.7789 128.99C85.7019 127.961 86.4789 129.042 87.0369 129.655C94.3619 137.703 100.913 146.37 106.902 155.433C111.849 162.92 114.808 171.433 118.477 179.572C118.985 180.701 119.573 181.819 118.762 183.304C118.069 182.851 117.423 182.44 116.791 182.009C110.405 177.672 103.49 174.331 96.2619 171.746C88.4019 168.933 80.2879 166.921 72.1069 165.231C64.5799 164.644 57.0539 163.41 49.5189 165.1C48.5219 165.324 47.5169 165.597 46.5809 165.998C41.6089 168.128 40.7659 171.836 44.1439 176.09C48.1939 181.193 53.742 184.319 59.379 187.053C75.007 194.636 91.4809 199.198 108.957 199.541C112.73 199.615 116.539 199.586 120.127 198.154C121.887 197.451 122.263 198.19 122.504 199.793C123.781 208.306 124.23 216.893 125.007 225.453C126.205 238.67 127.177 251.92 130.549 264.761C129.375 265.741 128.743 264.763 128.019 264.346C110.595 254.293 91.8029 249.094 71.7329 248.568C67.9609 248.47 64.1629 248.816 60.6229 250.351C55.8259 252.431 54.9329 256.12 58.1509 260.232C62.2369 265.454 67.8909 268.633 73.6409 271.415C89.2779 278.983 105.757 283.535 123.231 283.851C127.112 283.921 131.063 283.96 134.703 282.273C136.819 281.293 137.317 282.721 137.89 284.142C142.994 296.792 152.06 306.185 162.664 314.313C162.927 314.516 163.278 314.604 163.589 314.746Z" fill="#5768CB"/>
</svg>
