<svg width="166" height="557" viewBox="0 0 166 557" xmlns="http://www.w3.org/2000/svg">
    <path d="M15.052 78.443c38.585 32.377 65.588 68.581 80.845 106.75 15.257 38.17 18.768 78.304 10.371 118.543-8.397 40.239-28.703 80.581-61.08 119.167l-50.78 60.517c-32.377 38.586-68.581 65.589-106.75 80.846-38.17 15.257-78.304 18.768-118.543 10.37-40.238-8.397-80.581-28.702-119.167-61.08-38.585-32.376-65.588-68.58-80.845-106.75-15.257-38.169-18.768-78.303-10.371-118.542 8.397-40.239 28.703-80.581 61.08-119.167l50.78-60.517c32.377-38.586 68.581-65.589 106.75-80.846 38.17-15.257 78.304-18.768 118.543-10.37 40.238 8.397 80.581 28.702 119.167 61.08z" stroke-width="110" fill="none" fill-rule="evenodd"/>
</svg>
