<svg width="945" height="961" viewBox="0 0 945 961" xmlns="http://www.w3.org/2000/svg">
    <defs>
        <linearGradient x1="24.359%" y1="37.309%" x2="110.291%" y2="96.138%" id="k5dnw7r4ra">
            <stop stop-color="#EAF1FC" offset="0%"/>
            <stop stop-color="#C0D4F4" offset="100%"/>
        </linearGradient>
        <linearGradient x1="-197.707%" y1="-78.922%" x2="122.821%" y2="77.931%" id="kl6ixz0f7b">
            <stop stop-color="#EAF1FC" offset="0%"/>
            <stop stop-color="#C0D4F4" offset="100%"/>
        </linearGradient>
        <linearGradient x1="68.396%" y1="61.486%" x2="42.257%" y2="49.044%" id="qhdtbb8wfc">
            <stop stop-color="#223762" offset="0%"/>
            <stop stop-color="#041B48" offset="100%"/>
        </linearGradient>
        <linearGradient x1="137.769%" y1="8.325%" x2="3.298%" y2="68.263%" id="q921byg2ud">
            <stop stop-color="#FF9F5B" offset="0%"/>
            <stop stop-color="#E5670E" offset="100%"/>
        </linearGradient>
        <linearGradient x1="-5912.63%" y1="50.006%" x2="-5965.759%" y2="50.006%" id="m42jrze1be">
            <stop stop-color="#FF9F5B" offset="0%"/>
            <stop stop-color="#E5670E" offset="100%"/>
        </linearGradient>
        <linearGradient x1="32.386%" y1="42.022%" x2="80.668%" y2="82.173%" id="4efudl8g4f">
            <stop stop-color="#223762" offset="0%"/>
            <stop stop-color="#041B48" offset="100%"/>
        </linearGradient>
        <linearGradient x1="100.035%" y1="50.009%" x2="0%" y2="50.009%" id="k327budcag">
            <stop stop-color="#223762" offset="0%"/>
            <stop stop-color="#041B48" offset="100%"/>
        </linearGradient>
        <linearGradient x1="18.004%" y1="50.282%" x2="77.412%" y2="49.78%" id="e8tdsew0gh">
            <stop stop-color="#223762" offset="0%"/>
            <stop stop-color="#041B48" offset="100%"/>
        </linearGradient>
        <linearGradient x1="44.556%" y1="39.128%" x2="96.445%" y2="120.294%" id="05unjbivgi">
            <stop stop-color="#FFC52B" offset="0%"/>
            <stop stop-color="#E7A52F" offset="100%"/>
        </linearGradient>
        <linearGradient x1="65.667%" y1="48.636%" x2="26.892%" y2="55.467%" id="iico08g94j">
            <stop stop-color="#ECECFE" offset="0%"/>
            <stop stop-color="#ECECFE" offset="100%"/>
        </linearGradient>
        <linearGradient x1="43.437%" y1="33.956%" x2="68.066%" y2="117.79%" id="528ux4v3gk">
            <stop stop-color="#C6D1FF" offset="0%"/>
            <stop stop-color="#E3E4F9" offset="100%"/>
        </linearGradient>
        <linearGradient x1="87.03%" y1="91.009%" x2="90.812%" y2="37.441%" id="kzlbwuny6l">
            <stop stop-color="#FFAB3B" offset="0%"/>
            <stop stop-color="#D8A227" offset="100%"/>
        </linearGradient>
        <linearGradient x1="33.855%" y1="101.724%" x2="45.226%" y2="4.787%" id="0snu1aqoum">
            <stop stop-color="#FFAA3C" offset="0%"/>
            <stop stop-color="#FFC62B" offset="100%"/>
        </linearGradient>
        <linearGradient x1="75.377%" y1="15.245%" x2="27.411%" y2="36.085%" id="yn15avl1mn">
            <stop stop-color="#454C88" offset="0%"/>
            <stop stop-color="#3A3F74" offset="100%"/>
        </linearGradient>
        <linearGradient x1="-15941.332%" y1="53.495%" x2="-15905.228%" y2="59.484%" id="hq8lfxlqoo">
            <stop stop-color="#FFC42D" offset="0%"/>
            <stop stop-color="#FFC12E" offset="100%"/>
        </linearGradient>
        <linearGradient x1="70.285%" y1="30.831%" x2="0%" y2="99.698%" id="gl7xz0ifbp">
            <stop stop-color="#EDEDFF" offset="0%"/>
            <stop stop-color="#E6E7FC" offset="100%"/>
        </linearGradient>
        <linearGradient x1="108.126%" y1="134.682%" x2="76.591%" y2="48.6%" id="8ytz4u8hvq">
            <stop stop-color="#3769A5" offset="0%"/>
            <stop stop-color="#08448B" offset="100%"/>
        </linearGradient>
        <linearGradient x1="1026.53%" y1="584.534%" x2="419.287%" y2="252.65%" id="drdd4rq84r">
            <stop stop-color="#223762" offset="0%"/>
            <stop stop-color="#041B48" offset="100%"/>
        </linearGradient>
        <linearGradient x1="871.898%" y1="724.554%" x2="359.334%" y2="306.704%" id="3p5lhnowws">
            <stop stop-color="#223762" offset="0%"/>
            <stop stop-color="#041B48" offset="100%"/>
        </linearGradient>
        <linearGradient x1="-18.33%" y1="38.214%" x2="77.899%" y2="79.043%" id="gbtog9inyt">
            <stop stop-color="#D3D5EF" offset="0%"/>
            <stop stop-color="#E2E3F9" offset="100%"/>
        </linearGradient>
        <linearGradient x1="69.469%" y1="-8.213%" x2="22.948%" y2="141.051%" id="hbnrmzk4iu">
            <stop stop-color="#D3D5EF" offset="0%"/>
            <stop stop-color="#E4E4FA" offset="100%"/>
        </linearGradient>
        <linearGradient x1="87.03%" y1="79.332%" x2="90.84%" y2="40.734%" id="6yc8ksr7sv">
            <stop stop-color="#FFAB3B" offset="0%"/>
            <stop stop-color="#D8A227" offset="99.266%"/>
        </linearGradient>
        <linearGradient x1="35.454%" y1="101.724%" x2="45.699%" y2="4.787%" id="2oli9omiww">
            <stop stop-color="#FFAA3C" offset="0%"/>
            <stop stop-color="#FFC62B" offset="100%"/>
        </linearGradient>
        <linearGradient x1="41.094%" y1="8.815%" x2="62.622%" y2="27.209%" id="bohlj1o9qx">
            <stop stop-color="#454C88" offset="0%"/>
            <stop stop-color="#3A3F74" offset="100%"/>
        </linearGradient>
        <linearGradient x1="-32.416%" y1="68.663%" x2="-14.898%" y2="64.698%" id="xi076sf3ky">
            <stop stop-color="#F8A695" offset="0%"/>
            <stop stop-color="#E56045" offset="100%"/>
        </linearGradient>
        <linearGradient x1="49.155%" y1="92.184%" x2="52.594%" y2="-15.024%" id="a0zw2pgqiz">
            <stop stop-color="#4C93F4" offset="0%"/>
            <stop stop-color="#0B63DA" offset="100%"/>
        </linearGradient>
        <linearGradient x1="69.08%" y1="41.129%" x2="63.429%" y2="44.57%" id="qqijr5b5fA">
            <stop stop-color="#4C93F4" offset="0%"/>
            <stop stop-color="#0B63DA" offset="100%"/>
        </linearGradient>
        <linearGradient x1="70.202%" y1="44.469%" x2="65.653%" y2="45.991%" id="fmdzdk5e1B">
            <stop stop-color="#4C93F4" offset="0%"/>
            <stop stop-color="#0B63DA" offset="100%"/>
        </linearGradient>
        <linearGradient x1="80.763%" y1="-272.622%" x2="198.039%" y2="-156.629%" id="qjdyei1stC">
            <stop stop-color="#FFC063" offset="0%"/>
            <stop stop-color="#E44D0B" offset="95%"/>
        </linearGradient>
        <linearGradient x1="75.772%" y1="-2.194%" x2="19.945%" y2="114.316%" id="fnxd1zjr1D">
            <stop stop-color="#E6E6FB" offset="0%"/>
            <stop stop-color="#DEDFF6" offset="100%"/>
        </linearGradient>
        <linearGradient x1="0%" y1="50%" x2="100%" y2="50%" id="if5ht8xtcE">
            <stop stop-color="#223762" offset="0%"/>
            <stop stop-color="#041B48" offset="100%"/>
        </linearGradient>
        <linearGradient x1="49.014%" y1="64.778%" x2="55.21%" y2="34.659%" id="qlafylgybF">
            <stop stop-color="#FFC52C" offset="0%"/>
            <stop stop-color="#E3A42D" offset="100%"/>
        </linearGradient>
        <linearGradient x1="67.682%" y1="42.01%" x2="19.398%" y2="82.196%" id="x5tpm3yc4G">
            <stop stop-color="#223762" offset="0%"/>
            <stop stop-color="#041B48" offset="100%"/>
        </linearGradient>
        <linearGradient x1="82.05%" y1="50.274%" x2="22.666%" y2="49.779%" id="pqlmm53naH">
            <stop stop-color="#223762" offset="0%"/>
            <stop stop-color="#041B48" offset="100%"/>
        </linearGradient>
        <linearGradient x1="46.093%" y1="31.854%" x2="53.989%" y2="86.296%" id="yekulix0yI">
            <stop stop-color="#EDEDFF" offset="0%"/>
            <stop stop-color="#E2E3F9" offset="100%"/>
        </linearGradient>
        <linearGradient x1="87.03%" y1="79.406%" x2="90.84%" y2="40.71%" id="tuhqj9a3tJ">
            <stop stop-color="#FFAB3B" offset="0%"/>
            <stop stop-color="#D8A227" offset="99.266%"/>
        </linearGradient>
        <linearGradient x1="35.417%" y1="101.724%" x2="45.688%" y2="4.787%" id="yf37dl8hjK">
            <stop stop-color="#FFAA3C" offset="0%"/>
            <stop stop-color="#FFC62B" offset="100%"/>
        </linearGradient>
        <linearGradient x1="40.77%" y1=".401%" x2="82.065%" y2="50%" id="8u6pbpoijL">
            <stop stop-color="#454C88" offset="0%"/>
            <stop stop-color="#303561" offset="100%"/>
        </linearGradient>
        <linearGradient x1="38.461%" y1="38.187%" x2="41.893%" y2="41.825%" id="w5dglp27nM">
            <stop stop-color="#223762" offset="0%"/>
            <stop stop-color="#041B48" offset="100%"/>
        </linearGradient>
        <linearGradient x1="49.95%" y1="13.803%" x2="46.526%" y2="24.949%" id="k1c99pi0wN">
            <stop stop-color="#223762" offset="0%"/>
            <stop stop-color="#041B48" offset="100%"/>
        </linearGradient>
        <linearGradient x1="46.248%" y1="39.988%" x2="41.522%" y2="22.695%" id="7k5fhgh1vO">
            <stop stop-color="#4C93F4" offset="0%"/>
            <stop stop-color="#0B63DA" offset="100%"/>
        </linearGradient>
        <linearGradient x1="42.918%" y1="32.443%" x2="70.916%" y2="72.096%" id="6x6py94fiP">
            <stop stop-color="#D2D4EF" offset="0%"/>
            <stop stop-color="#E6E6FB" offset="100%"/>
        </linearGradient>
    </defs>
    <g fill="none" fill-rule="evenodd">
        <path d="M637.942 282.658c-140.797 1.054-226.675-136.09-293.665-162.478-100.659-39.622-233.412 62.915-147.8 346.581s129.978 355.813 284.128 380.013c123.402 19.371 232.104-91.625 275.35-180.208 67.79-138.584 22.837-384.962-118.013-383.908z" fill="url(#k5dnw7r4ra)" fill-rule="nonzero" opacity=".49" transform="rotate(-36 478 480.5)"/>
        <path d="M881.806 281.782c5.125-8.96 9.864-18.068 13.624-27.741 9.47-24.365 2.312-45.578-18.578-60.555-10.914-7.825-23.306-11.874-36.687-13.223-4.01-.405-7.986-.458-11.983-.577-1-.03-2.097.276-2.883-.686h-1.379c-.132 1.227-1.004 1.317-1.987 1.385-5.262.362-10.331 1.569-15.388 3.094-21.068 6.359-36.59 19.693-47.08 38.627-10.51 18.97-15.013 39.885-17.659 61.266-.388 3.141.06 6.43-1.263 9.452.288 8.348-.219 16.688.543 25.063.683 7.5 1.617 14.937 2.683 22.385 1.403 9.805 4.188 19.434 3.696 29.496-.262 5.378-3.204 9.618-8.279 11.451-6.413 2.316-13.132 3.1-19.824 3.255-13.292.31-26.597.19-39.897.052-7.14-.073-14.11.706-20.937 2.789-15.266 5.04-20.395 22.626-17.944 35.041 1.218 6.167 4.808 11.056 8.318 16.008 6.816 7.45 14.644 13.689 22.91 19.438 16.355 11.376 33.85 20.972 50.197 32.354 9.329 6.496 18.332 13.404 24.679 23.059 4.314 6.562 6.224 13.555 3.754 21.531-2.171 7.009-5.78 13.198-9.542 19.341-8.73 14.256-18.375 27.975-25.31 43.278-3.647 8.047-6.69 16.293-7.457 25.204-.221 2.038-.674 4.083-.626 6.116.368 15.091 5.93 28.075 16.38 38.877 8.921 9.222 19.537 16.205 30.859 22.066 24.545 12.705 50.717 20.876 77.46 27.39-1.624-2.67-4.92-1.947-7.083-3.503-.717-.516-2.107-.245-2.194-1.331-.105-1.298 1.277-1.449 2.158-1.846 5.94-2.68 11.923-5.265 17.847-7.976 9.153-4.19 18.336-8.324 27.383-12.735 6.884-3.355 13.91-6.455 20.443-10.503-.225-.256-.51-.479-.669-.772-6.38-11.737-10.842-24.007-10.36-37.64.054-1.53.18-3.036-2.151-3.002-4.01.06-7.605-1.582-11.122-3.224-15.835-7.397-29.038-18.257-40.246-31.532-4.12-4.879-7.992-10.084-9.601-16.516-1.266-5.066 1.05-8.071 6.278-8.022 3.858.037 7.468 1.268 10.874 2.89 18.12 8.644 33.173 21.036 45.002 37.308.492.675.671 1.827 2.143 1.409 2.142-13.104 6.644-25.604 10.925-38.166 2.772-8.134 5.854-16.162 8.15-24.459.432-1.562.388-2.39-1.505-2.463-3.86-.152-7.351-1.675-10.768-3.277-15.826-7.422-29.02-18.289-40.213-31.573-4.037-4.791-7.833-9.903-9.459-16.212-1.355-5.26.923-8.305 6.332-8.229 1.018.015 2.047.174 3.049.376 7.571 1.52 13.944 5.709 20.582 9.306.163-.776.231-1.587.504-2.323 2.546-6.885 6.134-13.239 9.87-19.529 1.08-1.823 2.756-3.417 2.741-5.78-.748-.28-1.485-.596-2.246-.837-19.473-6.168-36.574-16.21-50.69-31.117-2.448-2.587-4.677-5.332-5.77-8.84-1.412-4.537.372-7.656 5.007-8.097 2.483-.237 5.014-.275 7.53.263 15.547 3.32 29.093 10.835 41.908 19.9 3.965 2.805 7.533 6.114 11.287 9.643.52-1.783-.164-2.79-.528-3.817-3.86-10.91-7.775-21.806-10.491-33.073-.861-3.575-1.394-7.128-4.937-9.313-.97-.598-1.548-1.961-2.109-3.074-4.246-8.443-6.062-17.468-6.28-26.862-6.547-.077-12.87 1.6-19.295 2.48-5.899.81-11.851 1.552-17.758.9-11.428-1.261-14.973-9.416-13.603-20.16 2.008-15.753 12.194-26.424 23.35-36.349 2.73-2.429 5.35-4.977 8.122-7.369a273.09 273.09 0 0 0 23.16-22.505c5.066-5.54 9.382-11.765 14.033-17.685" fill="#91A1ED"/>
        <path d="M33.823 564.256c10.885 8.165 22.927 13.477 36.903 12.601 8.75-.548 15.414-4.718 19.385-12.689 4.918-9.867 4.96-20.353 3.253-30.885-1.908-11.763-6.056-22.814-11.977-33.144-3.936-6.866-8.223-13.577-15.183-17.818-9.098-5.544-19.093-8.13-30.907-8.277-1.714-.204-4.527.346-7.359.756C8.93 477.553-3.665 491.553.96 512.315c4.746 21.304 15.378 38.824 32.863 51.941" fill="#92A2FF"/>
        <path d="M298.756 545.203c-5.246 1.476-10.547 2.786-15.73 4.459-22.262 7.184-41.97 19.071-60.641 32.94-7.356 5.462-13.584 12.182-20.797 17.775-5.178-2.83-9.198-7.045-13.512-10.97-8.654-7.878-17.1-15.928-24.28-25.198-6.821-8.805-12.676-18.198-16.65-28.671 2.432-.853 3.972 1.025 5.729 2.005 5.403 3.015 10.646 6.362 16.503 8.445 4.703 1.674 8.907.735 11.062-2.11 3.125-4.126 3.198-9.996-.132-14.004-1.821-2.192-3.906-4.25-6.178-5.963-11.2-8.446-24.143-14.002-35.93-21.486-1.454-3.018-1.517-6.35-2.022-9.559-1.413-8.974-2.8-17.963-2.81-27.087-.001-.992-.163-1.84-1.368-1.986v-1.38c1.39-1.688.365-3.69.718-5.516 12.66-.323 24.257 3.916 35.851 8.264 5.566 2.087 10.952 4.711 16.808 5.96 1.637.348 3.572.972 4.78-.695 1.077-1.489.243-3.132-.611-4.512-3.437-5.55-7.06-10.986-10.38-16.604-7.535-12.758-12.273-26.536-14.833-41.13-1.49-8.489-2.524-17.017-1.945-25.601.789-11.695 2.48-23.193 9.491-33.196 7.686-10.967 20.855-15.379 33.183-10.259 7.536 3.13 11.661 9.718 14.366 17.153 2.84 7.804 3.937 15.91 4.264 24.205 1.047 26.528-4.368 52.079-11.235 77.443-1.042 3.85-1.741 7.795-2.492 11.717-.18.938-.559 2.217.568 2.815 1.188.633 1.969-.466 2.54-1.231 3.69-4.95 7.328-9.939 10.933-14.95 6.615-9.203 13.226-18.417 21.423-26.309 3.977-3.827 8.444-6.891 13.754-8.837 6.653-2.437 12.976 1.073 17.042 7.92 3.049 5.133 3.217 10.72 2.078 16.323-2.31 11.35-8.982 20.457-15.745 29.439-7.226 9.596-15.374 18.427-23.231 27.5-4.79 5.53-9.418 11.219-13.254 17.483-1.444 2.356-2.495 4.87-2.447 7.766.077 4.644 3.86 7.515 8.367 6.207 4.626-1.342 8.423-4.123 11.967-7.222 9.079-7.936 17.381-16.68 25.884-25.212 4.226-4.241 8.796-8.037 13.973-11.016 7.07-4.067 13.92-3.352 17.622 4.922 2.469 5.52 3.586 11.264 4.257 17.214 1.32 11.725-2.432 22.301-6.94 32.75L52.636 429.966" fill="#9DACFF"/>
        <path d="M227.101 642.042c-9.253 6.026-18.169 12.521-26.675 19.559-1.783 1.476-2.423.514-3.513-.694-3.654-4.04-7.41-7.987-11.128-11.97l-.687-.718.032.01c-3.837-6.11-8.495-11.637-12.231-17.843-6.101-10.134-10.785-20.843-12.357-32.529-1.115-8.285-.786-16.733 3.643-24.422 2.132-3.697 4.601-4.24 7.877-1.313 3.719 3.325 6.402 7.463 9.045 11.634 6.54 10.321 11.036 21.625 15.8 32.802.48 1.125.982 2.24 1.97 3.287 0-1.421.016-2.843-.002-4.264-.258-21.085 1.505-42.009 4.706-62.844 1.707-11.107 3.867-22.075 7.592-32.695 1.071-3.052 2.508-5.921 4.36-8.562 2.862-4.08 6.293-4.56 10.254-1.506 10.449 8.055 15.935 19.18 18.372 31.712 1.798 9.25 2.53 18.628 1.772 28.241-1.369 17.33-4.704 34.136-10.435 50.49-1.932 5.512-4.248 10.887-6.382 16.328-.582 1.486-1.385 2.91-1.337 4.58l.037-.003-.713.72M818.589 646.601c1.068-.729 2.149-1.45 1.69-3.031-.898-.716-1.782-1.45-2.696-2.142-9.683-7.33-17.162-16.396-21.926-27.641-.814-1.92-1.148-3.008 1.687-2.566 1.552.242 3.13-.356 4.644-1 6.232-2.653 11.308-6.907 16.026-11.598 10.803-10.742 19.844-22.776 26.256-36.68 2.32-4.893 4.153-9.939 3.775-15.456-.303-4.46-2.392-5.93-6.844-5.4-3.213.382-5.606 2.368-8.24 3.906-1.064.66-2.23 1.197-3.178 1.994-17.409 14.63-31.24 31.757-37.557 54.104-.145.516-.082 1.262-.91 1.17-.661-.074-.82-.647-.961-1.24-.948-3.996-2.055-7.957-2.873-11.977-4.03-19.821-3.81-40.124-6.781-60.068-.16-1.07-.184-2.135 1.45-1.997 3.89.329 7.024-1.804 10.374-3.228 9.565-6.722 17.523-15.088 24.451-24.425 6.985-9.414 13.411-19.19 16.28-30.787.931-3.771 2.172-8.029-1.49-10.895-3.437-2.69-7.074-.463-10.285 1.215-6.255 3.269-11.452 7.958-16.243 13.068-10.583 11.287-19.61 23.635-25.366 38.145-.574 1.448-.99 2.958-1.697 5.102-1.941-7.188-5.06-13.153-7.821-19.263-5.911-13.077-14.835-24.102-24.053-34.911-.744-.872-1.544-1.697-2.327-2.536-1.196-1.281-1.3-2.142.344-3.426 4.818-3.763 6.393-9.542 7.862-15.001 4.706-17.49 5.7-35.244 2.337-53.143-.723-3.85-1.91-7.544-3.687-11.046-3.01-5.93-8.207-6.383-11.955-.786-3.418 5.103-5.271 10.919-6.538 16.911-3.663 17.693-4.396 35.413.045 53.954-2.374-2.453-4.126-4.24-5.853-6.051-8.762-9.204-17.604-18.337-24.984-28.748-.616-.87-1.261-1.519-.795-2.732 2.287-5.95 1.175-11.92.164-17.943-.87-5.187-2.883-10.043-3.948-15.158-4.79-11.297-9.644-22.562-17.342-32.292-2.713-3.428-5.664-6.638-9.247-9.192-5.48-3.904-10.252-1.812-10.846 4.91-.663 7.518.615 14.767 2.97 21.968 1.885 5.77 3.573 11.577 6.197 17.077 1.429 2.992 3.783 5.491 4.6 8.795 4.018 8.494 9.348 16 16.662 21.985.964.789 2.047 1.799 3.176 1.95 4.126.556 6.057 3.585 8.298 6.5 7.063 9.19 15.073 17.55 23.037 25.948.75.79 1.785 1.43 2.034 3.271-4.865-1.697-9.47-3.269-14.233-4.218-15.394-3.069-30.826-4.424-46.38-1.135-2.517.532-4.813 1.597-6.985 2.824-4.055 2.288-4.416 5.862-1.28 9.433 2.424 2.76 5.577 4.361 8.866 5.728 18.958 7.876 38.666 10.095 58.964 7.81.793-.089 1.594-.1 2.392-.15 4.115-1.587 8.725-2.09 11.93-5.662.923-1.029 1.7.052 2.258.665 7.325 8.048 13.876 16.715 19.865 25.778 4.947 7.487 7.906 16 11.575 24.139.508 1.129 1.096 2.247.285 3.732-.693-.453-1.339-.864-1.971-1.295-6.386-4.337-13.301-7.678-20.529-10.263-7.86-2.813-15.974-4.825-24.155-6.515-7.527-.587-15.053-1.821-22.588-.131-.997.224-2.002.497-2.938.898-4.972 2.13-5.815 5.838-2.437 10.092 4.05 5.103 9.598 8.229 15.235 10.963 15.628 7.583 32.102 12.145 49.578 12.488 3.773.074 7.582.045 11.17-1.387 1.76-.703 2.136.036 2.377 1.639 1.277 8.513 1.726 17.1 2.503 25.66 1.198 13.217 2.17 26.467 5.542 39.308-1.174.98-1.806.002-2.53-.415-17.424-10.053-36.216-15.252-56.286-15.778-3.772-.098-7.57.248-11.11 1.783-4.797 2.08-5.69 5.769-2.472 9.881 4.086 5.222 9.74 8.401 15.49 11.183 15.637 7.568 32.116 12.12 49.59 12.436 3.881.07 7.832.109 11.472-1.578 2.116-.98 2.614.448 3.187 1.869 5.104 12.65 14.17 22.043 24.774 30.171.263.203.614.291.925.433" fill="#CDD5FF"/>
        <path d="M641.13 683.77c.16-10.95-10.72-16.31-16.76-8.32-14.29 18.89-44.1 51.72-69 68.57-35 23.65 8.54 68.12 39 61.74 30.46-6.38 46.3-103.16 46.73-121.45.02-.207.03-.387.03-.54z" fill="url(#kl6ixz0f7b)" fill-rule="nonzero" opacity=".49"/>
        <path d="M430.41 689.13a66 66 0 0 1-33.6 48 65.76 65.76 0 0 1 15.6-103.73 66 66 0 0 1 18 55.73z" fill="url(#qhdtbb8wfc)" fill-rule="nonzero"/>
        <path fill="url(#q921byg2ud)" fill-rule="nonzero" d="M415.43 810h-67.11l-9.96-86.97h87.03z"/>
        <path fill="url(#m42jrze1be)" fill-rule="nonzero" d="m338.19 723.03 9.96 86.97h25.67l-7.43-86.97z"/>
        <path fill="#FFD46A" fill-rule="nonzero" d="M334.96 720.55h93.83v21.43h-93.83z"/>
        <path d="m238.91 779.05-6.14 6s6.43 11.91 7.66 13.14c1.23 1.23 10 2.17 11.72 3.69 1.72 1.52 3.68 8.12 3.68 8.12h-20.51l-31.58-21.49L220.19 766l18.72 13.05z" fill="url(#4efudl8g4f)" fill-rule="nonzero"/>
        <path d="M314.35 592.82v88.66a13 13 0 0 1-2.66 7.88l-70.83 93a26.28 26.28 0 0 1-16.64-6.05l-8.07-6.55L278.44 675l-10.24-94.28 46.15 12.1z" fill="#444B88" fill-rule="nonzero"/>
        <path d="M255.72 725.64c-2.29-.86-3.19-5.42-4.9-8.61l27.61-42-9.77-90 1.15-3.89 44.53 11.68v12.76c-4.43 1.6-11.82 4.46-13.73 6.37-2.77 2.77 0 61.76 0 66.8 0 5.04-40.88 48.4-44.89 46.89z" fill="#383E72" fill-rule="nonzero"/>
        <path d="m231.94 745.75 16.61-25.28a4.52 4.52 0 0 1 1.39 1.14c1.34 1.92 3.85 28.77 3.64 44.06l-10 13.15c-2.8-6.59-8.07-21.08-11.64-33.07z" fill="url(#k327budcag)" fill-rule="nonzero"/>
        <path d="m274.39 787.06-1.05 4.41s18.46 8.07 22.79 9.45c4.33 1.38 6.31 3.91 6.57 5.92a9.75 9.75 0 0 1 0 3.15h-51.75l.79-23.7 22.65.77z" fill="url(#e8tdsew0gh)" fill-rule="nonzero"/>
        <path d="M349.26 353.2s-2.64-11.76-8.59-15.59c-5.95-3.83-8.06-5-14-6.08-5.94-1.08-11.89 5.94-12.81 9.12-.92 3.18 13.87 9.78 14.66 11.36.79 1.58-5.11 1.19-5.11 1.19l-.76 4.9s13.4 2.76 15.64 4.61c2.24 1.85 10.97-9.51 10.97-9.51z" fill="url(#05unjbivgi)" fill-rule="nonzero"/>
        <path d="M294.19 591.81s-1.4 75.12-3.92 95.29-14.74 101.09-14.74 101.09-13 1.76-19 1.26l-6.05-.5-4-106.89s-16.2-42.35-18.72-70.06c-2.52-27.71 0-29.75 0-29.75l66.43 9.56z" fill="#444B88" fill-rule="nonzero"/>
        <path d="M227.76 612c-2.52-27.73 0-29.75 0-29.75l66.44 9.58s-.13 7.24-.4 17.83c-4.3 1.06-12.06 2.39-24.93 2.81-22.69.76-29-2.27-31.76-2.14-2.76.13-.32 18.09.95 25.4 1.27 7.31 10.08 30.63 12.1 33.65 2.02 3.02 21.65 9.77 24.67 13.8 3.02 4.03-15.83 5.82-16.83 10.38-1 4.56 1.29 30.31 2.42 44.18 1.13 13.87-10 51.21-10 51.21l-4-106.89s-16.14-42.35-18.66-70.06z" fill="#383E72" fill-rule="nonzero"/>
        <path d="M303.57 413.07s46.67 19.21 56.23 15.06c9.56-4.15-27.69-66.39-27.69-66.39s5.68-9.07 11.49-10.73c5.81-1.66 8 .4 8 .4s37.18 59.78 36.62 76.41c-.83 24.82-19.73 26.27-30.32 27.52-12.78 1.51-53.55-3.65-59.53-7.8-5.98-4.15 5.2-34.47 5.2-34.47z" fill="url(#iico08g94j)" fill-rule="nonzero"/>
        <path d="M260.84 408.2s-13.78.53-22.64 5.51c-8.86 4.98-19.7 21.69-20.81 48.29-1.11 26.6 5.54 78.92 5.54 78.92l-4.84 50.61s23.95 16.4 51.64 15.3c27.69-1.1 46.58-9.42 46.58-9.42s-1.11-158.95-4.88-171.13c-3.77-12.18-8-14.12-12.2-15.37-4.2-1.25-6.73-1.91-6.73-1.91l-31.66-.8z" fill="url(#528ux4v3gk)" fill-rule="nonzero"/>
        <path d="M293.9 409.78a29.89 29.89 0 0 1 6.34 4.71c3 3-1.48 5.88-1.12 7.89.36 2.01 3.39 2.9 5.15 6.18 1.76 3.28-5.14 95.44-5.14 95.44l-10-82.34v-21.42l4.77-10.46z" fill="#B2BFF6" fill-rule="nonzero"/>
        <path d="M260.84 408.2s-5.78 9.71-6 12.17c-.22 2.46 13 4.35 14.15 9.45 1.15 5.1-2.46 13.18.01 21.74 2.47 8.56 30.13 72.44 30.13 72.44l-7.58-67.53L278.44 424l-17.6-15.8z" fill="#B2BFF6" fill-rule="nonzero"/>
        <path fill="#FFF" fill-rule="nonzero" d="m293.93 409.62 2.1 11.04-11.83-5.52-11.84 6.55-11.52-13.5 8.18-.91z"/>
        <path d="m298.73 388.49-4.83 21.28s-2.87 3.95-10.39 3.71c-7.52-.24-14.51-6.2-14.51-6.2l.93-21.86 28.8 3.07z" fill="url(#kzlbwuny6l)" fill-rule="nonzero"/>
        <path d="M331.29 341.41s-7.88 24.4-10.9 32.83c-3.02 8.43-14.14 6.49-14.14 6.49L297.42 359l16.51-22.22 17.36 4.63z" fill="#303561" fill-rule="nonzero"/>
        <path d="M320 369.79c-4.2 9.18-9.36 20.24-17.21 28.58-7.85 8.34-28.2 2.77-31.6-7.67-3.4-10.44-.7-23.92-.7-23.92s-6.91-2.19-6.65-7.9c.26-5.71 3.62-13.06 7.34-13.3 3.72-.24 5.29 4.42 5.29 4.42s2.7-10.14 12-13.51c9.3-3.37 34.82 9.14 35.78 11 .96 1.86-.09 13.12-4.25 22.3z" fill="url(#0snu1aqoum)" fill-rule="nonzero"/>
        <path d="M276 364s2.27-13 5.33-18.1c3.06-5.1 7.5-7.48 14.59-7.2 7.09.28 24.13 9.46 28.58 9.89 4.45.43 7.5-.58 9.25-9s-5.26-24.06-22.07-28.8c-16.81-4.74-27.35-.5-34.58 2.3-7.23 2.8-9.24 17.42-12.23 29.19s-5.08 28.55-3.87 35.21 9 8.35 9 8.35l1-20.06s-3.16.13-4.81-4.75c-1.65-4.88-.33-11.82 2.69-14.23s7.71.31 7.72 4.94c.01 4.63-.6 12.26-.6 12.26z" fill="url(#yn15avl1mn)" fill-rule="nonzero"/>
        <path d="M291.44 324.79c9.71.07 32.13 17.7 37.13 15.6 1.55-.65 3.44-2.87 5.31-5.63a15.24 15.24 0 0 1-.1 4.86c-1.74 8.45-4.8 9.46-9.25 9-4.45-.46-21.49-9.6-28.58-9.89-7.09-.29-11.52 2.13-14.59 7.2-3.07 5.07-5.36 18.14-5.36 18.14s5.73-39.35 15.44-39.28z" fill="#303561" fill-rule="nonzero"/>
        <path d="M272.36 421.69s20 45.94 20.82 60.62c.24 4.21 6 41.69 6 41.69L296 420.66l-11.8-5.52-11.84 6.55z" fill="#FFF" fill-rule="nonzero"/>
        <path d="M312.08 468a87.1 87.1 0 0 1 10.71-5.17c4-1.39 10.71-2.9 14.12-1.64 3.41 1.26 6.55 7.56 7.06 9.45.51 1.89 1.13 8.19-4.29 11.85s-7.44 3-10 0c-2.56-3-14.62-.5-14.62-.5L312.08 468z" fill="url(#hq8lfxlqoo)" fill-rule="nonzero"/>
        <path d="M217.39 462a85.25 85.25 0 0 1 5.49-27.58l35 1s-15.48 36.71-9.7 42c6.56 6 25.37 1.55 25.37 1.55l20.66 17.38s-20.74 7.08-30.41 13.6c-9.67 6.52-18.93 9.73-19.88 20.7-.95 10.97 21.72 17 21.35 22.12-.37 5.12-21.16 7.94-26.83 17.77-5.67 9.83-20.33 21-20.33 21l4.84-50.61s-6.67-52.36-5.56-78.93z" fill="#B2BFF6" fill-rule="nonzero"/>
        <path d="M251 423a11.44 11.44 0 0 1 5.93 15.48c-6.4 13.43-16.4 36-14.75 43C244.54 491.65 312.4 466 312.4 466s7.92 7.2 8.52 13.21c.6 6.01-1.82 7.83-1.82 7.83s-65.43 26-81.69 22.49c-24.28-5.22-22.36-24.08-21.71-34.72.78-12.85 4.63-48.05 15.55-55.1 3.42-2.16 12.12.13 19.75 3.29z" fill="url(#gl7xz0ifbp)" fill-rule="nonzero"/>
        <ellipse fill="url(#8ytz4u8hvq)" fill-rule="nonzero" transform="rotate(-75.51 316.497 467.455)" cx="316.497" cy="467.455" rx="5.68" ry="7.58"/>
        <ellipse fill="#FFF" fill-rule="nonzero" transform="rotate(-75.51 316.875 466.029)" cx="316.875" cy="466.029" rx="5.68" ry="7.58"/>
        <path stroke="#124" stroke-linecap="round" stroke-linejoin="round" d="m319.22 469.57-2.35-3.54-2.96 1.17"/>
        <path d="M470.9 784.89V810h-60.08s-.43-7.56 2.45-9.58c2.88-2.02 34.14-11.65 34.14-11.65l4-6.06 19.49 2.18z" fill="url(#drdd4rq84r)" fill-rule="nonzero"/>
        <path d="M509 783.49V792s-17 7.25-19.46 10.56a12.71 12.71 0 0 0-2.28 7.45h25.88l19.67-9.52-5.18-21.33-18.63 4.33z" fill="url(#3p5lhnowws)" fill-rule="nonzero"/>
        <path d="M456.12 557.65 446.49 685v100.25s11.51 4.26 16.51 3.41l4.94-.85 4.44-1.28.93-93L514.56 567l-58.44-9.35z" fill="#444B88" fill-rule="nonzero"/>
        <path d="M476.41 654.18c0 7.79-3.16 26-9.49 29.7-6.33 3.7-11.08 8.1-8.76 13.39 1.92 4.38 3.34 4.78 4.56 14.28 1.22 9.5-8 30.75-8 41.71 0 6.88 2.4 23.73 4.18 35.33a14 14 0 0 0 4 .09l4.94-.85 4.44-1.28.93-93L514.56 567l-14.9-2.39-22.29 8.26s-.96 73.52-.96 81.31z" fill="#383E72" fill-rule="nonzero"/>
        <path d="M539 560.57s2.43 21 .76 35.4c-1.67 14.4-20.45 100-20.45 100l11.22 85.3s-9.79 5-16.25 4.77l-6.46-.26S488.2 703.84 487 693.82c-1.2-10.02-12.52-135.48-12.52-135.48l64.52 2.23z" fill="#444B88" fill-rule="nonzero"/>
        <path d="m530.65 781.25-11.22-85.3s18.78-85.55 20.45-100c0-.37.08-.75.12-1.14-3.94 3.79-9.11 8.34-13.36 10.66-8 4.38-1.7 12.9 0 18.74 1.7 5.84-7.17 57.44-12 63.29-4.83 5.85-14.3 4.87-12.11 14.12 2.19 9.25 11.57 7.55 12.11 13.14.54 5.59-3.84 30.91-1.4 40.41 1.48 5.76 7.26 19 11.57 28.58a60.79 60.79 0 0 0 5.84-2.5z" fill="#383E72" fill-rule="nonzero"/>
        <path d="M395.84 441.06s1.07-11-2.75-16.19c-3.82-5.19-8.85-6.78-10-8-1.15-1.22-14.08-14-16.8-15-1-.38-4.8-1.24-2.86 4.38S375.5 417 375 418.67s-5.64 3.14-7.51 8.33c-1.87 5.19-2.65 10.47 2.93 12 5.58 1.53 17.21 10.47 17.21 10.47l8.21-8.41z" fill="#FFB733" fill-rule="nonzero"/>
        <path d="m461.24 416.5-27.82 52.12-35.87-35.78s-9.5 6.46-11.08 12.38l-1.58 5.92s41.52 40.92 47.32 44.46c5.8 3.54 38.9-19.83 38.9-19.83l-9.87-59.27z" fill="url(#gbtog9inyt)" fill-rule="nonzero"/>
        <path d="M510.73 408.89s26.67 9.45 33.1 16.1c6.43 6.65-3.79 71.47-3.77 84.15.02 12.68 1.77 58.31 1.77 58.31s-41.56 8.15-63.21 1.63c-22-6.61-26.83-8.51-26.83-8.51s-.73-81.62-.37-96.22c.36-14.6 4.67-41.69 9.83-47.85 5.16-6.16 20.9-6.92 20.9-6.92l28.58-.69z" fill="url(#hbnrmzk4iu)" fill-rule="nonzero"/>
        <path d="M472.84 480.37S490 500.58 503 510.08s13.62 25.61 9.55 34.79c-4.07 9.18-39.68 7.87-49.61 10.79a50.82 50.82 0 0 0-11.11 4.94c.69.26 6.32 2.33 26.75 8.48 21.66 6.52 63.21-1.63 63.21-1.63s-1.76-45.62-1.77-58.31c0-4.06 1-13.46 2.25-24.58l-69.43-4.19z" fill="#C6D1FF" fill-rule="nonzero"/>
        <path d="m482 409.1-6.25 1.23s-.6 4.49 4.57 9 11.81 3.83 18.77.44c6.96-3.39 11.61-10.88 11.61-10.88l-4.45-1L482 409.1z" fill="#FFF" fill-rule="nonzero"/>
        <path d="m478.15 392.36 4 17.22s2.65 3.22 9.92 3.12c7.27-.1 14.21-4.82 14.21-4.82l-.21-17.64-27.92 2.12z" fill="url(#6yc8ksr7sv)" fill-rule="nonzero"/>
        <path d="M467.05 330s-1 24.78-1.1 33.44c-.1 8.66 10.67 10.62 10.67 10.62l15.29-16.78-7.55-25.69-17.31-1.59z" fill="#303561" fill-rule="nonzero"/>
        <path d="M467.84 359.55c.74 9.74 1.72 21.5 6.05 31.7s24.66 12 31.25 3.61 8.64-21.47 8.64-21.47 7 .32 8.68-4.95c1.68-5.27 1.08-13.06-2.21-14.52-3.29-1.46-6.32 2.2-6.32 2.2s.94-10.11-6.39-16.29-34.66-3.35-36.15-2c-1.49 1.35-4.29 11.98-3.55 21.72z" fill="url(#2oli9omiww)" fill-rule="nonzero"/>
        <path d="M509.62 369s2.3-12.58 1.22-18.21c-1.08-5.63-4.3-9.3-10.83-11.42-6.53-2.12-25.07.51-29.25-.59s-6.62-3-5.37-11.3 12.83-20.08 29.67-18.75c16.84 1.33 25 8.7 30.62 13.66 5.62 4.96 2.56 18.9 1.33 30.59-1.23 11.69-4.91 27.64-8.23 33.28-3.32 5.64-11 4.56-11 4.56l5.81-18.54s2.82 1.17 6-2.7 4.26-10.62 2.32-13.82c-1.94-3.2-7.1-2.3-8.66 1.9-1.56 4.2-3.63 11.34-3.63 11.34z" fill="url(#bohlj1o9qx)" fill-rule="nonzero"/>
        <path d="M508.79 328.26c-8.83-3.18-35.08 5.31-38.92 1.73-1.19-1.11-2.16-3.76-2.93-6.89a14.74 14.74 0 0 0-1.53 4.45c-1.25 8.26 1.19 10.19 5.37 11.3 4.18 1.11 22.72-1.52 29.25.59 6.53 2.11 9.75 5.79 10.83 11.42s-1.22 18.21-1.22 18.21 7.98-37.63-.85-40.81z" fill="#303561" fill-rule="nonzero"/>
        <path d="M471.28 460.09s-3.37-6-6.66-8.56c-3.29-2.56-10-2.17-10-2.17l2.72 9.09 13.94 1.64z" fill="url(#xi076sf3ky)" fill-rule="nonzero"/>
        <path d="m463.81 487.49-6.11-64.22a3.84 3.84 0 0 0-3.53-3.39l-45.22-2a2.8 2.8 0 0 0-1.91.61l-2.5 1.69 1.62 2.09 6 62.93a3.84 3.84 0 0 0 3.53 3.39l43.48 1.95 1 1.29 2.44-1.66.09-.06.09-.06a2.78 2.78 0 0 0 1.02-2.56z" fill="#223762" fill-rule="nonzero"/>
        <path d="m458.22 492.42-45.22-2a3.84 3.84 0 0 1-3.53-3.39l-6.11-64.22a2.74 2.74 0 0 1 2.91-3.1l45.22 2a3.84 3.84 0 0 1 3.53 3.39l6.11 64.22a2.74 2.74 0 0 1-2.91 3.1z" fill="url(#a0zw2pgqiz)" fill-rule="nonzero"/>
        <path d="M431 443.23a6.68 6.68 0 0 1-.39-2 4.68 4.68 0 0 0-2.24.22c-2.72 1-4 4.3-2.84 7.4 1.16 3.1 4.29 4.82 7 3.84a5.27 5.27 0 0 0 3.23-5.42 6.14 6.14 0 0 1-4.76-4.04z" fill="#D6E3FA" fill-rule="nonzero"/>
        <path fill="url(#qqijr5b5fA)" fill-rule="nonzero" d="m441.32 481.26-16.43-.73-.31-3.26L441 478z"/>
        <path fill="url(#fmdzdk5e1B)" fill-rule="nonzero" d="m443.66 483.83-20.65-.92-.17-1.82 20.65.92z"/>
        <path d="M476 463.67s-10.37-8.1-14.83-10.34c-4.46-2.24-17.29-2.27-19.87-.89-2.58 1.38-2.39 9.33-1.49 12.13.9 2.8 10.77 7.33 16.67 9.09l17.79 5.28 1.73-15.27z" fill="#FFB733" fill-rule="nonzero"/>
        <path d="M516.42 445.92s-2.93 19.65-5.93 21.47c-3 1.82-19.81.37-19.81.37l24.69 24.62s17.12-.4 17.73-.82c.61-.42 2.25-27.39 2.25-27.39l-18.93-18.25z" fill="url(#qjdyei1stC)" fill-rule="nonzero"/>
        <path d="M519.47 428.91s5.7-8.1 14.65-7.3c1.68.15 3.15.35 4.43.57a9.54 9.54 0 0 1 7.88 8.85c.94 16.33 3.13 58.68 1 67.7-.08.353-.17.687-.27 1-3.25 11-16.37 15.72-26.21 9.76l-50-30.28s-3.12-10.39.66-14.68l3.78-4.29s39.78 19.7 43.54 20.37c3.76.67-6.82-27.18-4.71-37.4 2.11-10.22 5.25-14.3 5.25-14.3z" fill="url(#fnxd1zjr1D)" fill-rule="nonzero"/>
        <path fill="url(#if5ht8xtcE)" fill-rule="nonzero" d="M666.75 824H203.74l31.78-14h401.92z"/>
        <path d="M549.21 577.42s-4 5.77-4.57 8.65c-.57 2.88-.12 4.81 1.32 7.69 1.44 2.88 2.16 7.09 6 7 3.84-.09 9.49-4.81 9.49-4.81l-5.65-13.6-6.59-4.93z" fill="url(#qlafylgybF)" fill-rule="nonzero"/>
        <path fill="#667DFF" fill-rule="nonzero" d="M528.88 607.93h64.14v86.43h-65.58z"/>
        <path d="M520.62 609.79v79.56s-.41 5.56 6.82 5a11.52 11.52 0 0 0 9.61-7V613s1.12-2.34-4.44-4.39c-5.56-2.05-11.99 1.18-11.99 1.18z" fill="#566BE1" fill-rule="nonzero"/>
        <path d="M542.84 609.13s-.37-5.79 1.55-10.21c1.92-4.42 7.58-6.13 11.79-5.65l8.32 1v3.48s-9.28-1.2-12.28.12c-3 1.32-4 4.2-4.81 6.49-.81 2.29 0 7.21 0 7.21l-4.57-2.44z" fill="#667DFF" fill-rule="nonzero"/>
        <path d="m560.8 425 2.2 79.86-15.61 72.9a10.22 10.22 0 0 0 7.63 6.77l6.3 1.55 27.18-66.66L560.8 425z" fill="#C6D1FF" fill-rule="nonzero"/>
        <path d="m632 779.45 6.12 5.93s-6.4 11.86-7.63 13.09c-1.23 1.23-10 2.17-11.68 3.67-1.68 1.5-3.67 8.13-3.67 8.13h20.43l31.43-21.4-16.38-22.41L632 779.45z" fill="url(#x5tpm3yc4G)" fill-rule="nonzero"/>
        <path d="M556.87 593.94v88.31a13 13 0 0 0 2.65 7.85l70.55 92.67a26.18 26.18 0 0 0 16.57-6l8-6.53-62-94.42 10.2-93.91-45.97 12.03z" fill="#444B88" fill-rule="nonzero"/>
        <path d="M615.27 726.25c2.28-.86 3.18-5.4 4.88-8.58l-27.5-41.86 9.73-89.61-1.15-3.88-44.36 11.63v12.71c4.41 1.59 11.77 4.44 13.67 6.34 2.76 2.76 0 61.52 0 66.54 0 5.02 40.74 48.21 44.73 46.71z" fill="#383E72" fill-rule="nonzero"/>
        <path d="m596.68 787.42 1 4.39s-18.38 8-22.7 9.42-6.29 3.89-6.55 5.9a9.71 9.71 0 0 0 0 3.14H620l-.79-23.6-22.53.75z" fill="url(#pqlmm53naH)" fill-rule="nonzero"/>
        <path d="M576.95 592.94s1.39 74.83 3.9 94.92c2.51 20.09 14.69 100.69 14.69 100.69s12.93 1.76 19 1.26l6-.5 4-106.47s16.07-42.19 18.58-69.81c2.51-27.62 0-29.63 0-29.63l-66.17 9.54z" fill="#444B88" fill-rule="nonzero"/>
        <path d="M643.13 613c2.51-27.62 0-29.63 0-29.63l-66.18 9.54s.13 7.21.39 17.76c4.29 1.06 12 2.38 24.84 2.8 22.6.75 28.88-2.26 31.64-2.13 2.76.13.31 18-.94 25.3-1.25 7.3-10 30.51-12.05 33.52-2.05 3.01-21.56 9.73-24.58 13.75-3.02 4.02 15.75 5.86 16.75 10.38 1 4.52-1.28 30.2-2.41 44-1.13 13.8 9.93 51 9.93 51l4-106.47s16.1-42.17 18.61-69.82z" fill="#383E72" fill-rule="nonzero"/>
        <path d="M610.17 410s13.72.52 22.55 5.49c8.83 4.97 19.63 21.61 20.73 48.09 1.1 26.48-5.52 78.61-5.52 78.61l4.82 50.41s-23.85 16.4-51.43 15.28c-27.58-1.12-46.4-9.38-46.4-9.38S556 440.17 559.77 428c3.77-12.17 7.93-14.07 12.15-15.31 4.22-1.24 6.7-1.86 6.7-1.86l31.55-.83z" fill="url(#yekulix0yI)" fill-rule="nonzero"/>
        <path d="M610.17 410s5.76 9.67 5.95 12.12c.19 2.45-12.93 4.33-14.09 9.42-1.16 5.09 2.48 13.18 0 21.66s-30 72.16-30 72.16l7.55-67.27 13.06-32.39 17.53-15.7z" fill="#C6D1FF" fill-rule="nonzero"/>
        <path fill="#FFF" fill-rule="nonzero" d="m578.63 410.86-3.52 11.59 11.8-5.5 11.79 6.53 11.47-13.44-8.14-.92z"/>
        <path d="M598.7 423.48s-19.91 45.77-20.7 60.39c-.24 4.19-5.93 41.53-5.93 41.53l3.08-102.94 11.79-5.5 11.76 6.52z" fill="#FFF" fill-rule="nonzero"/>
        <path d="M563.68 333.8s-.56-1-.66 12.05c-.1 13.05 6.59 26.46 6.59 26.46l3.86-37.46-9.79-1.05z" fill="#303561" fill-rule="nonzero"/>
        <path d="m577.37 393 4.12 17.77s2.74 3.32 10.24 3.22c7.5-.1 14.66-5 14.66-5l-.22-18.2-28.8 2.21z" fill="url(#tuhqj9a3tJ)" fill-rule="nonzero"/>
        <path d="M566.75 359.15c.77 10 1.78 22.18 6.24 32.7 4.46 10.52 25.45 12.33 32.24 3.73 6.79-8.6 8.92-22.15 8.92-22.15s7.22.33 9-5.1c1.78-5.43 1.12-13.47-2.28-15-3.4-1.53-5.64-.46-5.64-.46s.09-7.71-7.47-14.08-35.76-3.46-37.29-2.08c-1.53 1.38-4.47 12.4-3.72 22.44z" fill="url(#yf37dl8hjK)" fill-rule="nonzero"/>
        <path d="M607.39 392.44s7.86 1.22 10.31-1.07 9-25.45 10-35.8c1-10.35-3.42-25.33-6-29.57-5.84-9.51-22.22-12.05-35-8.29-12.78 3.76-27.38-4.71-27.38-4.71s-1.33 7.38 0 13.75c1.69 8.1 4.52 11.49 8.29 12.43 3.77.94 27.68-3 32.39.75 4.71 3.75 3.89 26.94 3.89 26.94s1.57-13.38 6.66-13.2c5.09.18 6.15 3.38 5.84 5.46-.51 3.42-4.11 12-7 11.68-5.99-.72-2 21.63-2 21.63z" fill="url(#8u6pbpoijL)" fill-rule="nonzero"/>
        <path d="M578 382.81s6-2 8.54.56c2.54 2.56 5.06 4 6.77 3.2l1.71-.75s-.06.75-3.52 2.51c-3.46 1.76-9.42 1.76-11.93.31s-1.57-5.83-1.57-5.83z" fill="url(#w5dglp27nM)" fill-rule="nonzero"/>
        <path d="M577.28 382.81s-3.4-2-4.87.56c-1.47 2.56-2.89 4-3.86 3.2l-1-.75s0 .75 2 2.51c2 1.76 5.37 1.76 6.81.31 1.44-1.45.92-5.83.92-5.83z" fill="url(#k1c99pi0wN)" fill-rule="nonzero"/>
        <path d="m586.91 424.35-.37 29.44c-4.32 11.7-8.22 23.78-8.57 30.07-.24 4.19-5.93 41.53-5.93 41.53l2.68-72.29 10-29.13-2.14-5 4.38-2 6.12 3.39-6.17 3.99z" fill="#667DFF" fill-rule="nonzero"/>
        <path d="M578.63 410.86s-9.51 5.74-10.25 10.66c-.74 4.92 2.95 7.13 2.95 9s-5.78 3.93-6.76 10.2c-.98 6.27 7.46 84.7 7.46 84.7l6.6-114.56zM622.13 587.45c14.06-5.77 19.28-24.87 16.58-32.62-2.7-7.75-10.09-8.11-9.55-15.32.54-7.21 14.24-23.07 11.89-25.59-2.35-2.52-12.61 17.66-26.57 13.88-13.96-3.78-34.91-20-34.91-20l35 4.83 31.26-81.49c4 8.13 7.08 19 7.64 32.44 1.1 26.48-5.52 78.61-5.52 78.61l4.82 50.41s-23.87 16.4-51.45 15.28c-27.58-1.12-46.4-9.38-46.4-9.38s.06-8.56.2-21.85a81.85 81.85 0 0 1 7.54 5.24c5.23 4.35 45.41 11.33 59.47 5.56z" fill="#C6D1FF" fill-rule="nonzero"/>
        <path d="M534.78 507.83s-7.05-50.54-20.6-60-17.36 7.81-17.36 7.81h-38s3.82-17.24 17.36-7.81 20.6 60 20.6 60h38z" fill="url(#7k5fhgh1vO)" fill-rule="nonzero"/>
        <path d="M470 445.12h-2.42c-6.62 1-8.73 10.53-8.73 10.53h38s2.11-9.49 8.73-10.53H470zM505.55 445.12H508a8.12 8.12 0 0 0-2.45 0zM467.59 445.12H470a8.12 8.12 0 0 0-2.41 0z" fill="#FFF" fill-rule="nonzero"/>
        <path d="M545 471.17s-7.22-6.18-13.85-6.25l-6.63-.06 1.23 3.78s.91 1.67-4.49 2.27c-5.4.6-8.09-2.92-11.45-1.12-3.36 1.8-3.52 5.54 1.42 10.78 4.94 5.24 11.83 8 20.66 7.41A17.55 17.55 0 0 0 545 480.5v-9.33z" fill="#FFB733" fill-rule="nonzero"/>
        <path d="M625 424.77a12.38 12.38 0 0 1 18.87 1.06c2 2.64 5.81 11.61 5.54 18.27-.31 7.63-22 72.32-28.43 77.61-6.43 5.29-83.81-34.39-83.81-34.39s1.9-11.32 4.83-14.44l2.88-3.07L605 490s12.83-55.47 18.36-63.31a18.85 18.85 0 0 1 1.64-1.92z" fill="url(#6x6py94fiP)" fill-rule="nonzero"/>
    </g>
</svg>
