<svg width="115" height="34" viewBox="0 0 115 34" xmlns="http://www.w3.org/2000/svg">
    <path d="M73.733 11.038c2.164-4.3 8.224-4.874 11.687-1.864.225.335.362.496.48.618l.097.099h.145V7.454h4.761v16.342c0 3.44-.577 5.877-2.308 7.597-2.886 3.01-8.225 3.01-12.12 2.007a13.96 13.96 0 0 1-4.185-2.007l2.453-3.87c1.01.716 2.164 1.146 3.174 1.433 2.02.43 4.906.574 6.493-1.003.722-.717 1.01-1.72 1.01-3.01v-1.72c-.288.43-1.01 1.29-2.164 1.72-2.453 1.003-5.339.716-7.503-.717-1.876-1.29-2.742-3.727-3.03-5.878-.289-2.436-.145-5.16 1.01-7.31zm-6.782-3.44c2.309.573 3.752 2.436 4.329 4.73.288 1.147.288 2.437.288 3.87v8.888h-4.906v-2.15c-.721.86-1.442 1.576-2.452 2.006-3.896 1.577-9.38 0-9.38-4.73 0-5.017 5.484-6.02 9.38-6.164h2.452c0-1.003-.288-1.72-1.01-2.294-1.298-1.146-3.318-1.003-4.905-.286-.722.43-1.443.86-2.02 1.577l-2.886-3.01c1.01-.86 2.164-1.578 3.607-2.15 2.309-.861 5.194-1.004 7.503-.288zM9.668 2.436v5.16h5.338v4.3H9.668v5.878c0 1.003.144 2.294 1.01 2.867.865.573 2.164.43 3.174.287.577 0 .866-.144 1.154-.43v4.443c-.721.144-1.298.287-2.02.43-3.751.43-9.234-.286-9.234-5.16v-8.314H0v-4.3h3.752V2.436h5.916zm98.117 8.027c2.165 2.867 2.453 7.168.722 10.465-1.732 3.44-5.772 5.017-9.523 4.3-4.473-.717-7.07-4.587-7.07-8.887 0-3.727 2.02-7.311 5.627-8.601 3.607-1.29 7.936-.287 10.244 2.723zm-79.071-3.01v4.874c-1.154-.287-3.463-.717-5.05.287-1.01.573-1.876 1.433-1.876 5.303v7.311h-5.483V7.597h5.627v2.867c.577-1.146 1.299-1.863 2.02-2.437 1.732-1.146 4.473-.716 4.762-.573zm13.275.143 4.473 11.898h.144l4.04-11.898h5.483l-6.926 17.489h-5.771L36.217 7.597h5.772zm-6.493 0v17.489h-5.34V7.597h5.34zm31.022 9.76-.016.01c-.306.092-3.965-.115-5.323.695-1.01.716-1.875 2.007-.865 3.01 1.01 1.003 2.741.86 3.896.43 1.298-.43 2.308-1.433 2.308-3.01v-1.135zm34.197-5.46c-2.597 0-3.896 2.008-3.896 4.445 0 2.293 1.443 4.443 3.896 4.443 2.597 0 3.896-2.007 3.896-4.443 0-2.294-1.443-4.444-3.896-4.444zm-15.872 1.148c-1.443-1.72-4.329-1.72-5.771 0-1.443 1.72-1.443 4.73 0 6.45 1.442 1.72 4.328 1.72 5.771 0 1.443-1.72 1.443-4.73 0-6.45zm27.271-5.878c1.732 0 2.886 1.29 2.886 2.867s-1.299 2.867-2.886 2.867c-1.587 0-2.886-1.29-2.886-2.867s1.299-2.867 2.886-2.867zm0 .717c-1.298 0-2.308 1.004-2.308 2.294s1.01 2.293 2.308 2.293c1.299 0 2.453-1.147 2.309-2.293 0-1.29-1.01-2.294-2.309-2.294zm.577.86c.578.144.866.717.433 1.29-.144.144-.288.287-.433.287l1.01 1.147h-.865l-.722-1.004h-.288v1.004h-.722V8.744h1.587zm-.635.574h-.375v.573h.145c.432 0 .721 0 .721-.287 0-.258-.234-.284-.49-.286zM32.754 0c1.587 0 2.886 1.29 2.886 2.867s-1.299 2.867-2.886 2.867c-1.443 0-2.886-1.29-2.886-2.867S31.167 0 32.754 0z" fill="#857ECB" fill-rule="nonzero"/>
</svg>
