<svg width="16" height="16" viewBox="0 0 16 16" xmlns="http://www.w3.org/2000/svg">
    <path d="M15.711 3.486c-.355.15-.723.268-1.1.353.416-.376.729-.846.905-1.37.05-.15-.12-.28-.263-.2a6.544 6.544 0 0 1-1.683.661.45.45 0 0 1-.4-.094 3.55 3.55 0 0 0-2.277-.816c-.363 0-.73.053-1.09.16-1.117.328-1.978 1.202-2.248 2.28-.101.405-.129.81-.081 1.204a.114.114 0 0 1-.031.092.13.13 0 0 1-.108.04C4.892 5.581 2.69 4.463 1.132 2.65a.185.185 0 0 0-.295.022 3.14 3.14 0 0 0-.466 1.643c0 .886.375 1.721 1.026 2.33a3.185 3.185 0 0 1-.785-.289c-.119-.063-.265.018-.267.148-.017 1.316.794 2.487 2.01 3.014a3.245 3.245 0 0 1-.653-.051c-.134-.025-.247.096-.205.22.394 1.17 1.455 2.032 2.724 2.227A6.594 6.594 0 0 1 .664 12.94H.266a.262.262 0 0 0-.258.189.254.254 0 0 0 .13.286 9.835 9.835 0 0 0 4.748 1.215c1.459 0 2.824-.275 4.057-.817A8.935 8.935 0 0 0 11.91 11.7a9.176 9.176 0 0 0 1.817-2.89 8.723 8.723 0 0 0 .618-3.164v-.05c0-.167.08-.325.22-.432.528-.408.988-.888 1.368-1.426.1-.143-.058-.321-.223-.252z" fill="#C4C9E3" fill-rule="evenodd"/>
</svg>
