<svg width="78" height="78" viewBox="0 0 78 78" xmlns="http://www.w3.org/2000/svg">
    <g fill="none" fill-rule="evenodd">
        <rect fill="#56D8FF" width="78" height="78" rx="4"/>
        <path d="M21.215 22.523c.013 0 .01 25.875.01 25.875l.088-.003c.71-.003 5.579-.003 11.4-.005h.022a13.493 13.493 0 0 1-.284-2.773c0-7.652 6.282-13.855 14.032-13.855a14.08 14.08 0 0 1 8.42 2.768V28.067H38.068a3.758 3.758 0 0 1-3.13-1.673l-2.487-3.863-11.236-.008zM44.39 40.332l7.96 4.376c.901.495.893 1.304-.003 1.802l-7.982 4.419c-.904.497-1.637.07-1.634-.952l.022-8.685c.002-1.028.743-1.453 1.637-.96zm2.092-4.877c-5.685 0-10.291 4.551-10.291 10.162 0 5.61 4.606 10.159 10.291 10.159 5.682 0 10.291-4.549 10.291-10.16 0-5.61-4.609-10.16-10.291-10.16zm-13.96-16.627c1.034 0 2.334.69 2.898 1.543l2.647 4h16.827c2.07 0 3.75 1.651 3.75 3.696v10.632a13.657 13.657 0 0 1 1.872 6.918c0 7.652-6.284 13.854-14.034 13.854a14.056 14.056 0 0 1-12.414-7.388H21.226c-2.068 0-3.743-1.652-3.743-3.685V22.515c0-2.036 1.683-3.687 3.732-3.687h11.307z" fill="#F9FAFE"/>
    </g>
</svg>
