<svg width="934" height="960" viewBox="0 0 934 960" fill="none" xmlns="http://www.w3.org/2000/svg">
<path fill-rule="evenodd" clip-rule="evenodd" d="M131.101 790.187C121.848 796.213 112.932 802.708 104.426 809.746C102.643 811.222 102.003 810.26 100.913 809.052C97.2589 805.012 93.5029 801.065 89.7849 797.082L89.0979 796.364L89.1299 796.374C85.2929 790.264 80.6349 784.737 76.8989 778.531C70.7979 768.397 66.1139 757.688 64.5419 746.002C63.4269 737.717 63.7559 729.269 68.1849 721.58C70.3169 717.883 72.7859 717.34 76.0619 720.267C79.7809 723.592 82.4639 727.73 85.1069 731.901C91.6469 742.222 96.1429 753.526 100.907 764.703C101.387 765.828 101.889 766.943 102.877 767.99C102.877 766.569 102.893 765.147 102.875 763.726C102.617 742.641 104.38 721.717 107.581 700.882C109.288 689.775 111.448 678.807 115.173 668.187C116.244 665.135 117.681 662.266 119.533 659.625C122.395 655.545 125.826 655.065 129.787 658.119C140.236 666.174 145.722 677.299 148.159 689.831C149.957 699.081 150.689 708.459 149.931 718.072C148.562 735.402 145.227 752.208 139.496 768.562C137.564 774.074 135.248 779.449 133.114 784.89C132.532 786.376 131.729 787.8 131.777 789.47L131.814 789.467L131.101 790.187ZM722.589 794.746C723.657 794.017 724.738 793.296 724.279 791.715C723.381 790.999 722.497 790.265 721.583 789.573C711.9 782.243 704.421 773.177 699.657 761.932C698.843 760.012 698.509 758.924 701.344 759.366C702.896 759.608 704.474 759.01 705.988 758.366C712.22 755.713 717.296 751.459 722.014 746.768C732.817 736.026 741.858 723.992 748.27 710.088C750.59 705.195 752.423 700.149 752.045 694.632C751.742 690.172 749.653 688.702 745.201 689.232C741.988 689.614 739.595 691.6 736.961 693.138C735.897 693.798 734.731 694.335 733.783 695.132C716.374 709.762 702.543 726.889 696.226 749.236C696.081 749.752 696.144 750.498 695.316 750.406C694.655 750.332 694.496 749.759 694.355 749.166C693.407 745.17 692.3 741.209 691.482 737.189C687.452 717.368 687.672 697.065 684.701 677.121C684.541 676.051 684.517 674.986 686.151 675.124C690.041 675.453 693.175 673.32 696.525 671.896C706.09 665.174 714.048 656.808 720.976 647.471C727.961 638.057 734.387 628.281 737.256 616.684C738.187 612.913 739.428 608.655 735.766 605.789C732.329 603.099 728.692 605.326 725.481 607.004C719.226 610.273 714.029 614.962 709.238 620.072C698.655 631.359 689.628 643.707 683.872 658.217C683.298 659.665 682.882 661.175 682.175 663.319C680.234 656.131 677.115 650.166 674.354 644.056C668.443 630.979 659.519 619.954 650.301 609.145C649.557 608.273 648.757 607.448 647.974 606.609C646.778 605.328 646.674 604.467 648.318 603.183C653.136 599.42 654.711 593.641 656.18 588.182C660.886 570.692 661.88 552.938 658.517 535.039C657.794 531.189 656.607 527.495 654.83 523.993C651.82 518.063 646.623 517.61 642.875 523.207C639.457 528.31 637.604 534.126 636.337 540.118C632.674 557.811 631.941 575.531 636.382 594.072C634.008 591.619 632.256 589.832 630.529 588.021C621.767 578.817 612.925 569.684 605.545 559.273C604.929 558.403 604.284 557.754 604.75 556.541C607.037 550.591 605.925 544.621 604.914 538.598C604.044 533.411 602.031 528.555 600.966 523.44C596.176 512.143 591.322 500.878 583.624 491.148C580.911 487.72 577.96 484.51 574.377 481.956C568.897 478.052 564.125 480.144 563.531 486.866C562.868 494.384 564.146 501.633 566.501 508.834C568.386 514.604 570.074 520.411 572.698 525.911C574.127 528.903 576.481 531.402 577.298 534.706C581.316 543.2 586.646 550.706 593.96 556.691C594.924 557.48 596.007 558.49 597.136 558.641C601.262 559.197 603.193 562.226 605.434 565.141C612.497 574.331 620.507 582.691 628.471 591.089C629.221 591.879 630.256 592.519 630.505 594.36C625.64 592.663 621.035 591.091 616.272 590.142C600.878 587.073 585.446 585.718 569.892 589.007C567.375 589.539 565.079 590.604 562.907 591.831C558.852 594.119 558.491 597.693 561.627 601.264C564.051 604.024 567.204 605.625 570.493 606.992C589.451 614.868 609.159 617.087 629.457 614.802C630.25 614.713 631.051 614.702 631.849 614.652C635.964 613.065 640.574 612.562 643.779 608.99C644.702 607.961 645.479 609.042 646.037 609.655C653.362 617.703 659.913 626.37 665.902 635.433C670.849 642.92 673.808 651.433 677.477 659.572C677.985 660.701 678.573 661.819 677.762 663.304C677.069 662.851 676.423 662.44 675.791 662.009C669.405 657.672 662.49 654.331 655.262 651.746C647.402 648.933 639.288 646.921 631.107 645.231C623.58 644.644 616.054 643.41 608.519 645.1C607.522 645.324 606.517 645.597 605.581 645.998C600.609 648.128 599.766 651.836 603.144 656.09C607.194 661.193 612.742 664.319 618.379 667.053C634.007 674.636 650.481 679.198 667.957 679.541C671.73 679.615 675.539 679.586 679.127 678.154C680.887 677.451 681.263 678.19 681.504 679.793C682.781 688.306 683.23 696.893 684.007 705.453C685.205 718.67 686.177 731.92 689.549 744.761C688.375 745.741 687.743 744.763 687.019 744.346C669.595 734.293 650.803 729.094 630.733 728.568C626.961 728.47 623.163 728.816 619.623 730.351C614.826 732.431 613.933 736.12 617.151 740.232C621.237 745.454 626.891 748.633 632.641 751.415C648.278 758.983 664.757 763.535 682.231 763.851C686.112 763.921 690.063 763.96 693.703 762.273C695.819 761.293 696.317 762.721 696.89 764.142C701.994 776.792 711.06 786.185 721.664 794.313C721.927 794.516 722.278 794.604 722.589 794.746Z" fill="#CDD5FF"/>
<path opacity="0.49" d="M479.692 225.679C366.404 309.29 216.316 248.816 146.61 266.844C41.8859 293.955 -5.24382 454.939 230.752 634.108C466.749 813.277 545.048 845.568 683.983 774.539C795.203 717.676 817.903 563.985 800.822 466.901C774.208 314.938 593.023 142.037 479.692 225.679V225.679Z" fill="url(#paint0_linear_338_1113)"/>
<path d="M171.56 460.831C141.909 437.033 116.162 383.591 133.223 332.819C150.07 282.414 209.358 260.651 255.353 290.695C300.64 321.045 300.841 351.174 363.792 364.548C426.32 378.179 449.996 461.06 392.271 492.56C334.081 524.586 201.2 484.57 171.56 460.83V460.831Z" fill="#464D89"/>
<path d="M171.56 460.831C141.909 437.033 116.162 383.591 133.223 332.819C150.07 282.414 209.358 260.651 255.353 290.695C300.64 321.045 300.841 351.174 363.792 364.548C426.32 378.179 449.996 461.06 392.271 492.56C334.081 524.586 201.2 484.57 171.56 460.83V460.831Z" fill="url(#paint1_linear_338_1113)"/>
<path d="M387.36 495.016C340.546 516.246 254.065 497.929 204.062 477.86C191.353 466.344 178.935 452.705 167.178 436.761C146.203 408.714 143.464 381.361 158.963 354.702H252.615C271.162 370.464 286.314 381.77 298.071 388.62C316.057 398.609 369.491 407.838 388.985 429.65C405.296 448.15 400.536 474.58 387.36 495.016V495.016Z" fill="url(#paint2_linear_338_1113)"/>
<path d="M79.0039 471.772C64.3569 470.329 56.1419 466.5 54.3579 460.284C51.8049 450.816 42.5899 440.208 45.5959 436.214C48.9959 432.561 53.7539 444.718 56.5489 446.06C60.2449 447.541 58.6819 406.072 72.4319 416.519C86.1829 427.309 82.9819 436.515 81.1939 448.795C80.1239 457.332 79.3939 464.991 79.0039 471.772V471.772Z" fill="#FFC62C"/>
<path d="M79.0039 471.772C64.3569 470.329 56.1419 466.5 54.3579 460.284C51.8049 450.816 42.5899 440.208 45.5959 436.214C48.9959 432.561 53.7539 444.718 56.5489 446.06C60.2449 447.541 58.6819 406.072 72.4319 416.519C86.1829 427.309 82.9819 436.515 81.1939 448.795C80.1239 457.332 79.3939 464.991 79.0039 471.772V471.772Z" fill="url(#paint3_linear_338_1113)"/>
<path d="M199.491 430.195C172.14 430.195 80.1949 450.524 75.1699 451.531C69.9139 452.742 67.4739 466.151 75.1699 470.678C82.6349 475.542 176.78 473.498 182.513 473.413C188.635 473.499 227.077 430.195 199.491 430.195V430.195Z" fill="#EFEFFF"/>
<path d="M199.491 430.195C172.14 430.195 80.1949 450.524 75.1699 451.531C69.9139 452.742 67.4739 466.151 75.1699 470.678C82.6349 475.542 176.78 473.498 182.513 473.413C188.635 473.499 227.077 430.195 199.491 430.195V430.195Z" fill="url(#paint4_linear_338_1113)"/>
<path d="M274.522 702.085C277.929 710.92 309.335 730.229 309.572 736.002C309.335 741.282 319.978 744.795 319.978 733.267C319.978 721.293 309.335 713.275 309.573 704.82C309.335 695.946 305.259 680.412 293.143 683.485C280.456 685.705 270.354 692.817 274.522 702.085V702.085Z" fill="#A7A7EE"/>
<path d="M274.522 702.085C277.929 710.92 309.335 730.229 309.572 736.002C309.335 741.282 319.978 744.795 319.978 733.267C319.978 721.293 309.335 713.275 309.573 704.82C309.335 695.946 305.259 680.412 293.143 683.485C280.456 685.705 270.354 692.817 274.522 702.085V702.085Z" fill="url(#paint5_linear_338_1113)"/>
<path d="M199.491 430.195H354.481C369.565 430.195 365.491 453.445 354.481 453.719C347.217 453.67 259.187 466.8 259.187 471.225C259.187 474.175 262.838 496.422 270.14 537.966L199.491 549.454C180.186 521.094 164.988 497.998 164.988 477.79C164.988 457.582 172.975 430.195 199.491 430.195V430.195Z" fill="#EFEFFF"/>
<path d="M199.491 430.195H354.481C369.565 430.195 365.491 453.445 354.481 453.719C347.217 453.67 259.187 466.8 259.187 471.225C259.187 474.175 262.838 496.422 270.14 537.966L199.491 549.454C180.186 521.094 164.988 497.998 164.988 477.79C164.988 457.582 172.975 430.195 199.491 430.195V430.195Z" fill="url(#paint6_linear_338_1113)"/>
<path d="M204.42 555.473C196.637 575.931 194.734 609.639 204.42 622.761C214.029 635.958 266.667 698.233 274.522 702.085C282.373 706.194 294.238 697.125 294.238 688.408C294.238 679.513 267.102 628.196 246.043 607.444C224.976 587.375 212.125 535.643 204.42 555.473V555.473Z" fill="#464D89"/>
<path d="M204.42 555.473C196.637 575.931 194.734 609.639 204.42 622.761C214.029 635.958 266.667 698.233 274.522 702.085C282.373 706.194 294.238 697.125 294.238 688.408C294.238 679.513 267.102 628.196 246.043 607.444C224.976 587.375 212.125 535.643 204.42 555.473V555.473Z" fill="url(#paint7_linear_338_1113)"/>
<path d="M209.897 401.75H209.896C201.124 401.75 194.014 408.86 194.014 417.632V433.462C194.014 442.233 201.124 449.344 209.896 449.344H209.897C218.668 449.344 225.779 442.233 225.779 433.462V417.632C225.779 408.86 218.668 401.75 209.897 401.75Z" fill="#FFC62C"/>
<path d="M209.897 401.75H209.896C201.124 401.75 194.014 408.86 194.014 417.632V433.462C194.014 442.233 201.124 449.344 209.896 449.344H209.897C218.668 449.344 225.779 442.233 225.779 433.462V417.632C225.779 408.86 218.668 401.75 209.897 401.75Z" fill="url(#paint8_linear_338_1113)"/>
<path fill-rule="evenodd" clip-rule="evenodd" d="M225.779 429.447C219.417 432.427 211.912 434.027 202.777 434.027C199.823 434.035 196.88 433.678 194.014 432.964V417.614C194.014 408.853 201.124 401.75 209.896 401.75C218.668 401.75 225.779 408.853 225.779 417.615V429.447V429.447Z" fill="url(#paint9_linear_338_1113)"/>
<path d="M131.58 572.979C135.694 595.229 169.102 609.087 231.804 614.555C236.066 614.045 239.169 611.492 241.114 606.896C244.534 599.757 244.591 594.481 244.4 594.314C278.79 594.481 292.855 550.791 269.593 524.291C246.63 498.108 126.178 539.421 131.58 572.979V572.979Z" fill="#464D89"/>
<path d="M131.58 572.979C135.694 595.229 169.102 609.087 231.804 614.555C236.066 614.045 239.169 611.492 241.114 606.896C244.534 599.757 244.591 594.481 244.4 594.314C278.79 594.481 292.855 550.791 269.593 524.291C246.63 498.108 126.178 539.421 131.58 572.979V572.979Z" fill="url(#paint10_linear_338_1113)"/>
<path d="M251.52 354.701C263.776 354.917 268.887 360.205 266.854 370.566C264.918 382.228 260.664 393.1 250.972 391.901C240.45 411.221 227.658 423.084 202.777 423.084C178.162 423.084 166.285 399.679 164.44 386.978C159.638 374.097 164.22 328.163 166.083 323.519C169.621 312.481 192.183 332.484 217.016 339.931C233.153 345.329 244.654 350.253 251.52 354.701Z" fill="#FFC62C"/>
<path d="M251.52 354.701C263.776 354.917 268.887 360.205 266.854 370.566C264.918 382.228 260.664 393.1 250.972 391.901C240.45 411.221 227.658 423.084 202.777 423.084C178.162 423.084 166.285 399.679 164.44 386.978C159.638 374.097 164.22 328.163 166.083 323.519C169.621 312.481 192.183 332.484 217.016 339.931C233.153 345.329 244.654 350.253 251.52 354.701Z" fill="url(#paint11_linear_338_1113)"/>
<path fill-rule="evenodd" clip-rule="evenodd" d="M167.795 342.12H236.664C245.623 342.12 253.71 353.264 253.71 367.011C253.71 380.758 245.623 391.902 236.664 391.902H167.795C158.835 391.902 150.748 380.758 150.748 367.012C150.748 353.264 158.836 342.12 167.795 342.12V342.12Z" fill="url(#paint12_linear_338_1113)"/>
<path fill-rule="evenodd" clip-rule="evenodd" d="M167.795 336.649H236.664C245.623 336.649 253.71 347.793 253.71 361.539C253.71 375.287 245.623 386.431 236.664 386.431H167.795C158.835 386.431 150.748 375.287 150.748 361.54C150.748 347.793 158.836 336.648 167.795 336.648V336.649Z" fill="#D6DFEA"/>
<path fill-rule="evenodd" clip-rule="evenodd" d="M159.424 343.213H234.081C243.792 343.213 245.495 351.418 245.495 361.54C245.495 371.661 243.792 379.866 234.081 379.866H159.424C149.713 379.866 148.01 371.661 148.01 361.54C148.01 351.418 149.713 343.213 159.424 343.213V343.213Z" fill="#1F1845"/>
<path fill-rule="evenodd" clip-rule="evenodd" d="M242.209 348.685L252.023 349.175C252.33 349.19 252.62 349.323 252.832 349.546C253.044 349.769 253.163 350.065 253.163 350.373V354.703L242.209 363.455V348.685V348.685Z" fill="#1F1845"/>
<path opacity="0.3" fill-rule="evenodd" clip-rule="evenodd" d="M182.403 349.231H205.078C207.518 349.231 209.858 350.201 211.584 351.926C213.309 353.651 214.278 355.991 214.278 358.431V365.195C214.278 367.635 213.309 369.975 211.584 371.701C209.858 373.426 207.518 374.395 205.078 374.395H182.403C179.963 374.395 177.623 373.426 175.898 371.701C174.172 369.975 173.203 367.635 173.203 365.195V358.431C173.203 355.991 174.172 353.651 175.898 351.926C177.623 350.201 179.963 349.231 182.403 349.231V349.231Z" fill="#7BC1EB"/>
<path fill-rule="evenodd" clip-rule="evenodd" d="M184.618 357.438H202.863C203.712 357.438 204.526 357.775 205.126 358.375C205.726 358.975 206.063 359.789 206.063 360.637V362.991C206.063 363.839 205.726 364.653 205.126 365.253C204.526 365.853 203.712 366.19 202.863 366.19H184.618C183.769 366.19 182.955 365.853 182.355 365.253C181.755 364.653 181.418 363.839 181.418 362.991V360.637C181.418 359.789 181.755 358.975 182.355 358.375C182.955 357.775 183.769 357.438 184.618 357.438Z" fill="#7BC1EB"/>
<path d="M175.726 558.453C175.622 558.424 175.524 558.376 175.439 558.31C175.354 558.244 175.282 558.162 175.229 558.069C175.175 557.975 175.141 557.872 175.127 557.765C175.113 557.658 175.121 557.55 175.149 557.446C175.177 557.342 175.225 557.244 175.291 557.159C175.357 557.074 175.439 557.002 175.533 556.948C175.626 556.895 175.729 556.86 175.836 556.847C175.943 556.833 176.052 556.84 176.156 556.869C184.726 559.188 192.245 563.142 202.424 570.074C204.692 571.619 212.632 577.19 212.812 577.314C225.371 586.036 234.199 590.983 245.206 594.629C245.412 594.697 245.583 594.845 245.681 595.039C245.779 595.234 245.795 595.459 245.726 595.666C245.658 595.873 245.51 596.044 245.315 596.141C245.121 596.239 244.895 596.255 244.689 596.187C233.502 592.48 224.551 587.465 211.874 578.662C211.686 578.532 203.755 572.967 201.498 571.43C191.458 564.592 184.084 560.714 175.726 558.453V558.453Z" fill="white"/>
<path d="M354.482 453.719C341.349 453.719 339.262 413.509 344.624 413.237C350.098 413.508 346.547 429.462 351.744 429.648C356.995 429.462 354.093 391.7 368.174 394.09C382.005 396.72 383.648 424.603 376.936 437.307C370.32 449.891 367.128 453.719 354.482 453.719V453.719Z" fill="#FFC62C"/>
<path d="M354.482 453.719C341.349 453.719 339.262 413.509 344.624 413.237C350.098 413.508 346.547 429.462 351.744 429.648C356.995 429.462 354.093 391.7 368.174 394.09C382.005 396.72 383.648 424.603 376.936 437.307C370.32 449.891 367.128 453.719 354.482 453.719V453.719Z" fill="url(#paint13_linear_338_1113)"/>
<path d="M231.804 614.555C267.311 620.269 287.758 619.54 293.143 612.367C300.783 601.319 268.477 598.384 260.83 592.126C253.117 586.292 247.309 584.921 243.305 588.844C239.267 593.016 243.704 597.559 241.662 604.708C240.186 609.908 236.9 613.19 231.804 614.555V614.555Z" fill="#EAEAFD"/>
<path d="M231.804 614.555C267.311 620.269 287.758 619.54 293.143 612.367C300.783 601.319 268.477 598.384 260.83 592.126C253.117 586.292 247.309 584.921 243.305 588.844C239.267 593.016 243.704 597.559 241.662 604.708C240.186 609.908 236.9 613.19 231.804 614.555V614.555Z" fill="url(#paint14_linear_338_1113)"/>
<defs>
<linearGradient id="paint0_linear_338_1113" x1="283.41" y1="497.22" x2="955.949" y2="424.852" gradientUnits="userSpaceOnUse">
<stop stop-color="#EAF1FC"/>
<stop offset="1" stop-color="#C0D4F4"/>
</linearGradient>
<linearGradient id="paint1_linear_338_1113" x1="276.48" y1="277" x2="276.48" y2="504.487" gradientUnits="userSpaceOnUse">
<stop stop-color="#403F9F" stop-opacity="0"/>
<stop offset="1" stop-opacity="0.2"/>
</linearGradient>
<linearGradient id="paint2_linear_338_1113" x1="149.084" y1="402.769" x2="356.997" y2="527.2" gradientUnits="userSpaceOnUse">
<stop stop-opacity="0.3"/>
<stop offset="1" stop-color="#1F1845" stop-opacity="0"/>
</linearGradient>
<linearGradient id="paint3_linear_338_1113" x1="63.9212" y1="414.83" x2="63.9212" y2="471.772" gradientUnits="userSpaceOnUse">
<stop stop-color="#FFC62C" stop-opacity="0"/>
<stop offset="1" stop-color="#FF6663" stop-opacity="0.3"/>
</linearGradient>
<linearGradient id="paint4_linear_338_1113" x1="139.808" y1="430.195" x2="139.808" y2="473.911" gradientUnits="userSpaceOnUse">
<stop stop-color="#A7A7EE" stop-opacity="0"/>
<stop offset="1" stop-color="#4C55A0" stop-opacity="0.2"/>
</linearGradient>
<linearGradient id="paint5_linear_338_1113" x1="296.773" y1="683.088" x2="296.773" y2="740.94" gradientUnits="userSpaceOnUse">
<stop stop-color="#A7A7EE" stop-opacity="0"/>
<stop offset="1" stop-color="#4C55A0" stop-opacity="0.2"/>
</linearGradient>
<linearGradient id="paint6_linear_338_1113" x1="264.656" y1="430.195" x2="264.656" y2="549.454" gradientUnits="userSpaceOnUse">
<stop stop-color="#A7A7EE" stop-opacity="0"/>
<stop offset="1" stop-color="#4C55A0" stop-opacity="0.2"/>
</linearGradient>
<linearGradient id="paint7_linear_338_1113" x1="246.044" y1="551.025" x2="246.044" y2="703.104" gradientUnits="userSpaceOnUse">
<stop stop-color="#403F9F" stop-opacity="0"/>
<stop offset="1" stop-opacity="0.2"/>
</linearGradient>
<linearGradient id="paint8_linear_338_1113" x1="209.896" y1="401.75" x2="209.896" y2="449.344" gradientUnits="userSpaceOnUse">
<stop stop-color="#FFC62C" stop-opacity="0"/>
<stop offset="1" stop-color="#FF6663" stop-opacity="0.3"/>
</linearGradient>
<linearGradient id="paint9_linear_338_1113" x1="225.279" y1="417.888" x2="194.308" y2="433.623" gradientUnits="userSpaceOnUse">
<stop stop-opacity="0.2"/>
<stop offset="1" stop-color="#FFC42C" stop-opacity="0"/>
</linearGradient>
<linearGradient id="paint10_linear_338_1113" x1="206.224" y1="516.009" x2="206.224" y2="614.555" gradientUnits="userSpaceOnUse">
<stop stop-color="#403F9F" stop-opacity="0"/>
<stop offset="1" stop-opacity="0.2"/>
</linearGradient>
<linearGradient id="paint11_linear_338_1113" x1="214.802" y1="320.268" x2="214.802" y2="423.084" gradientUnits="userSpaceOnUse">
<stop stop-color="#FFC62C" stop-opacity="0"/>
<stop offset="1" stop-color="#FF6663" stop-opacity="0.3"/>
</linearGradient>
<linearGradient id="paint12_linear_338_1113" x1="253.71" y1="361.192" x2="165.697" y2="403.747" gradientUnits="userSpaceOnUse">
<stop stop-opacity="0.15"/>
<stop offset="1" stop-color="#FFC42C" stop-opacity="0"/>
</linearGradient>
<linearGradient id="paint13_linear_338_1113" x1="361.319" y1="393.981" x2="361.319" y2="453.719" gradientUnits="userSpaceOnUse">
<stop stop-color="#FFC62C" stop-opacity="0"/>
<stop offset="1" stop-color="#FF6663" stop-opacity="0.3"/>
</linearGradient>
<linearGradient id="paint14_linear_338_1113" x1="263.053" y1="586.619" x2="263.053" y2="618.355" gradientUnits="userSpaceOnUse">
<stop stop-color="#A7A7EE" stop-opacity="0"/>
<stop offset="1" stop-color="#4C55A0" stop-opacity="0.2"/>
</linearGradient>
</defs>
</svg>
